<svg xmlns="http://www.w3.org/2000/svg" width="58.047" height="37.2" viewBox="0 0 58.047 37.2">
  <g id="Cash" transform="translate(-83.961 -145.747)">
    <g id="Cash-2" data-name="Cash" transform="translate(83.961 145.747)">
      <path id="Path_11534" data-name="Path 11534" d="M135.445,145.747H97.013a6.307,6.307,0,0,0-6.563,6v.526a6.3,6.3,0,0,0-6.489,6v18.673a6.308,6.308,0,0,0,6.563,6h38.433a6.308,6.308,0,0,0,6.563-6v-.526a6.3,6.3,0,0,0,6.488-6V151.749A6.308,6.308,0,0,0,135.445,145.747Zm-4.135,31.2c0,.972-1.077,1.793-2.354,1.793H90.525c-1.275,0-2.354-.821-2.354-1.793V158.273c0-.972,1.078-1.793,2.354-1.793h38.432c1.276,0,2.354.821,2.354,1.793Zm6.489-6.525a2.14,2.14,0,0,1-2.28,1.788V158.273a6.308,6.308,0,0,0-6.563-6h-34.3v-.522c0-.971,1.078-1.793,2.354-1.793h38.432c1.276,0,2.355.822,2.355,1.793v18.672Z" transform="translate(-83.961 -145.747)" fill="#389a1b"/>
      <path id="Path_11535" data-name="Path 11535" d="M205.462,231.749c-1.771-.211-2.67-.464-2.67-1.26,0-1.234,1.787-1.368,2.556-1.368a3.553,3.553,0,0,1,2.79,1.22l.162.268,2.585-1.195-.159-.323a4.867,4.867,0,0,0-3.767-2.647V224.8h-3.023v1.635c-2.664.415-4.242,1.915-4.242,4.053,0,3.519,3.3,3.888,5.483,4.134,1.984.234,2.908.71,2.908,1.5,0,1.525-2.152,1.642-2.812,1.642a3.646,3.646,0,0,1-3.316-1.7l-.136-.324-2.8,1.188.138.323a5.649,5.649,0,0,0,4.78,3.3v1.773h3.023v-1.86c2.208-.273,4.333-1.684,4.333-4.34C211.294,232.468,207.786,232.037,205.462,231.749Z" transform="translate(-179.608 -211.464)" fill="#389a1b"/>
    </g>
  </g>
</svg>
