<svg xmlns="http://www.w3.org/2000/svg" width="57.159" height="43.583" viewBox="0 0 57.159 43.583">
  <g id="Delivery_Wait" data-name="Delivery Wait" transform="translate(-74.57 -117.67)">
    <g id="Delivery_Wait-2" data-name="Delivery Wait" transform="translate(74.57 117.67)">
      <path id="Path_11574" data-name="Path 11574" d="M131.449,142.838l-6.535-9.687a1.635,1.635,0,0,0-1.357-.722H117.9a5.349,5.349,0,0,0-5.326-4.97H98.068a11.838,11.838,0,1,0-15.642,13.2v8.482a5.348,5.348,0,0,0,5.161,5.336c0,.06-.008.12-.008.18a6.6,6.6,0,0,0,13.2,0c0-.057-.007-.113-.009-.17H109.7c0,.056-.008.112-.008.17a6.6,6.6,0,1,0,13.2,0c0-.057-.008-.113-.009-.17h7.216a1.638,1.638,0,0,0,1.637-1.637v-9.092a1.641,1.641,0,0,0-.28-.917Zm-53.6-13.329a8.564,8.564,0,1,1,8.564,8.564A8.564,8.564,0,0,1,77.845,129.509Zm16.331,28.469a3.323,3.323,0,1,1,3.323-3.323,3.323,3.323,0,0,1-3.323,3.323Zm5.618-6.768a6.579,6.579,0,0,0-11.234,0h-.787a2.074,2.074,0,0,1-2.072-2.072v-7.812c.235.014.471.023.71.023a11.856,11.856,0,0,0,11.776-10.613h14.392a2.074,2.074,0,0,1,2.071,2.071v15.464a6.61,6.61,0,0,0-3.979,2.939Zm16.493,6.768a3.323,3.323,0,1,1,3.324-3.323,3.323,3.323,0,0,1-3.324,3.323Zm12.169-6.768H121.9a6.61,6.61,0,0,0-3.923-2.925V135.7h4.706l5.768,8.552v6.955Z" transform="translate(-74.57 -117.67)" fill="#389a1b"/>
      <path id="Path_11575" data-name="Path 11575" d="M144.57,164.388a1.638,1.638,0,0,0,.956-2.968l-2.914-2.092v-5.2a1.638,1.638,0,0,0-3.275,0v6c0,.015,0,.028,0,.042a1.63,1.63,0,0,0,.679,1.323l3.6,2.582A1.635,1.635,0,0,0,144.57,164.388Z" transform="translate(-129.134 -147.006)" fill="#389a1b"/>
    </g>
  </g>
</svg>
