<svg xmlns="http://www.w3.org/2000/svg" width="57.584" height="49.583" viewBox="0 0 57.584 49.583">
  <g id="Delivery_Cart" data-name="Delivery Cart" transform="translate(-82.733 -106.806)">
    <g id="Delivery_Cart-2" data-name="Delivery Cart" transform="translate(82.733 106.806)">
      <path id="Path_11569" data-name="Path 11569" d="M140.155,135.5a1.727,1.727,0,0,0-2.295-.835l-20.682,9.644a7.4,7.4,0,0,0-7.327-2.67L94.892,109.568l-9.98-2.7a1.728,1.728,0,1,0-.9,3.335l8.431,2.282,14.281,30.624a7.447,7.447,0,1,0,11.916,4.336l20.683-9.643A1.728,1.728,0,0,0,140.155,135.5ZM115.1,150.3a4,4,0,1,1-.482-3.659,4,4,0,0,1,.482,3.659Z" transform="translate(-82.733 -106.806)" fill="#389a1b"/>
      <path id="Path_11570" data-name="Path 11570" d="M223.652,157.718a1.729,1.729,0,0,0,.974.895,1.761,1.761,0,0,0,.59.1,1.743,1.743,0,0,0,.731-.161l19.881-9.272a1.728,1.728,0,0,0,.835-2.3l-8.457-18.138a1.729,1.729,0,0,0-2.3-.835l-19.881,9.271a1.727,1.727,0,0,0-.835,2.3Zm12.154-25.842,7,15.006-16.749,7.811-7-15.007Z" transform="translate(-193.048 -124.355)" fill="#389a1b"/>
    </g>
  </g>
</svg>
