<svg xmlns="http://www.w3.org/2000/svg" width="17.031" height="12.773" viewBox="0 0 17.031 12.773">
  <path id="envelope-solid" d="M16.708,68.218a.2.2,0,0,1,.323.156v6.8a1.6,1.6,0,0,1-1.6,1.6H1.6a1.6,1.6,0,0,1-1.6-1.6v-6.8a.2.2,0,0,1,.323-.156C1.068,68.8,2.056,69.535,5.448,72c.7.512,1.886,1.59,3.067,1.583,1.187.01,2.395-1.091,3.07-1.583C14.978,69.535,15.963,68.8,16.708,68.218Zm-8.193,4.3c.772.013,1.883-.971,2.441-1.377,4.414-3.2,4.75-3.483,5.768-4.281a.8.8,0,0,0,.306-.629V65.6a1.6,1.6,0,0,0-1.6-1.6H1.6A1.6,1.6,0,0,0,0,65.6v.632a.8.8,0,0,0,.306.629c1.018.795,1.354,1.078,5.768,4.281C6.633,71.544,7.744,72.529,8.515,72.515Z" transform="translate(0 -64)" fill="#389a1b"/>
</svg>
