<svg xmlns="http://www.w3.org/2000/svg" width="310.649" height="389.85" viewBox="0 0 310.649 389.85">
  <g id="Handdrawn_Tropical_Leaf2" data-name="Handdrawn Tropical Leaf2" transform="translate(128.354 389.85) rotate(-150)" opacity="0.3">
    <g id="Group_2067" data-name="Group 2067" transform="translate(0)">
      <path id="Path_9666" data-name="Path 9666" d="M145.789,189.324l-.021-.337q-.521-7.043-1.375-14.054c-.559-4.618-1.171-9.253-2.056-13.823a38.387,38.387,0,0,0-4.166-11.821,53.433,53.433,0,0,0-7.017-9.407c-2.716-2.995-5.643-5.786-8.549-8.6q-5.156-4.982-10.312-9.972a85.667,85.667,0,0,1-12.939-15.029,53.5,53.5,0,0,1-6.977-16.608c.027-.109.061-.225.1-.333.013.041.02.088.034.136a27.479,27.479,0,0,0,4.8,9.822,95.93,95.93,0,0,0,8.052,9.516c5.813,6.1,12.156,11.659,18.16,17.568,5.922,5.84,11.578,12.116,15.675,19.4a61.664,61.664,0,0,1,7.494,24.611A69.762,69.762,0,0,1,145.789,189.324ZM88.478,88.7q-.2.776-.408,1.552a39.88,39.88,0,0,1-9.155,12.306,35.3,35.3,0,0,1-7.038,4.915A38.635,38.635,0,0,1,62.81,110.8c-3.553.851-7.174,1.436-10.686,2.471a80.337,80.337,0,0,0-10.666,4.179q-5.4,2.45-10.761,4.989c-2.838,1.348-5.649,2.743-8.352,4.35a44.508,44.508,0,0,0-6.017,4.227,72.285,72.285,0,0,1,6.453-6.548,54.265,54.265,0,0,1,17.8-10.816A73.643,73.643,0,0,1,50.844,111.1c3.573-.7,7.154-1.354,10.672-2.294a40.336,40.336,0,0,0,9.924-3.982,48.415,48.415,0,0,0,4.485-3.117c1.361-1.028,2.7-2.083,4-3.186a42.6,42.6,0,0,0,6.479-6.718A36.074,36.074,0,0,0,88.478,88.7ZM16.505,134.546c-.708.429-1.409.885-2.1,1.354a38.423,38.423,0,0,1,11.367-8.338,45.31,45.31,0,0,1,8.263-2.43c2.879-.654,5.7-1.45,8.521-2.321a164.2,164.2,0,0,0,15.458-5.6,108.4,108.4,0,0,0,11.8-5.82,71.248,71.248,0,0,0,8.658-5.813,49.368,49.368,0,0,0,5.88-5.432,47.423,47.423,0,0,1-3.219,4.867,50.708,50.708,0,0,1-8.515,8.821,54.515,54.515,0,0,1-10.6,6.766,62.531,62.531,0,0,1-12.177,4.438c-1.586.4-3.192.749-4.8,1.034h-.014a51.021,51.021,0,0,0-7.739.858A67.137,67.137,0,0,0,27.2,129.57,57.844,57.844,0,0,0,16.505,134.546Zm30.833-8.508c1.409-.3,2.8-.633,4.186-1.021a62.57,62.57,0,0,0,12.143-4.785,54.723,54.723,0,0,0,10.394-7.059,51.27,51.27,0,0,0,8.317-9.148c.831-1.184,1.606-2.409,2.328-3.662-.164.374-.327.749-.5,1.123a55.976,55.976,0,0,1-5.6,9.658,40.653,40.653,0,0,1-6.479,7.065,33.244,33.244,0,0,1-7.14,4.662,31.346,31.346,0,0,1-7.664,2.525A55.047,55.047,0,0,1,47.339,126.038Zm21.6,5.983a47.092,47.092,0,0,0,10.5-10.747c-.1.211-.19.415-.292.626a51.8,51.8,0,0,1-5.493,9.529,27.12,27.12,0,0,1-8.4,7.174,69.914,69.914,0,0,1-10.632,4.649,93.581,93.581,0,0,1-11.421,3.3c-1.94.436-3.9.8-5.868,1.123s-3.948.606-5.894,1.035a28.916,28.916,0,0,0-9.713,4.051,42.159,42.159,0,0,0-7.773,6.756,66.5,66.5,0,0,0-6.323,7.98,46.96,46.96,0,0,0-4.955,9.269,27.286,27.286,0,0,0-1.341,4.519c.49-7.838,3.022-15.773,7.923-21.936,4.376-5.5,10.435-9.3,16.833-12.027,6.786-2.879,13.96-4.594,21.114-6.255A74.879,74.879,0,0,0,59.488,137.4,45.8,45.8,0,0,0,68.936,132.021ZM1.36,184.681c0-.078,0-.154.007-.231.361-.962.722-1.925,1.1-2.883a47.552,47.552,0,0,1,6.752-9.61,32.633,32.633,0,0,1,9.352-6.737c6.752-3.346,14.171-5.127,20.794-8.752,3.737-2.047,7.195-4.558,11.068-6.355,3.328-1.545,6.793-2.763,10.176-4.186a38.556,38.556,0,0,0,9.311-5.2,33.208,33.208,0,0,0,7.331-8.835c-.136.327-.272.653-.422.973a41.463,41.463,0,0,1-6.3,9.89,39.495,39.495,0,0,1-7.882,6.929,54.331,54.331,0,0,1-9.039,4.836c-3.2,1.374-6.493,2.521-9.8,3.593-3.335,1.078-6.691,2.076-10.019,3.147-3.288,1.056-6.555,2.181-9.74,3.525a56.542,56.542,0,0,0-9.114,4.785A38.928,38.928,0,0,0,1.36,184.681ZM72.271,159.69a23.747,23.747,0,0,1-10.85,10.443,45.322,45.322,0,0,1-7.48,2.957,70.212,70.212,0,0,1-8.576,2.041c-1.756.3-3.526.542-5.282.846a25.323,25.323,0,0,0-4.3,1.147,39.716,39.716,0,0,0-8.032,4.117,91.983,91.983,0,0,0-7.48,5.5c-1.191.951-2.389,1.891-3.512,2.923a32.275,32.275,0,0,0-3.09,3.274,27.684,27.684,0,0,0-5.936,12.608,36.723,36.723,0,0,1,4.3-15,38.158,38.158,0,0,1,13.382-13.571,44.694,44.694,0,0,1,8.467-4.083,55.073,55.073,0,0,1,10.1-2.447c6.5-1.026,13.17-1.588,19.249-4.3A25.819,25.819,0,0,0,72.271,159.69ZM9.182,205.469a40.955,40.955,0,0,1,4.56-7.333,40,40,0,0,1,6.616-6.658,45.6,45.6,0,0,1,7.337-4.742,57.872,57.872,0,0,1,7.446-3.219c2.328-.828,4.7-1.528,7.1-2.143,2.015-.517,4.043-.971,6.071-1.427,1.539-.346,3.09-.679,4.595-1.144a11.319,11.319,0,0,0,1.545-.58,61.917,61.917,0,0,0,5.942-3.266,37.225,37.225,0,0,0,9.924-8.51c.333-.429.646-.873.946-1.325-.007.016-.007.031-.014.046a27.068,27.068,0,0,1-1.191,2.556q-.286.53-.592,1.046c-.007.014-.014.021-.014.025s-.014.023-.027.042a.994.994,0,0,1-.075.12l-.143.238c-.089.142-.177.284-.272.425a52.033,52.033,0,0,1-3.4,4.993A29.329,29.329,0,0,1,58,180.97c-6.126,3.723-13.116,5.569-19.971,7.433-7.12,1.937-14.4,3.991-20.521,8.281A28.613,28.613,0,0,0,9.182,205.469Zm55.1-9.509a24.994,24.994,0,0,0,2.232-2.967,41.886,41.886,0,0,1-4.043,7.864,23.076,23.076,0,0,1-6.146,5.945,66.1,66.1,0,0,1-7.487,4.153q-4.288,2.145-8.515,4.418-8.443,4.562-16.567,9.679c-4.935,3.107-9.931,6.384-13.64,10.956a22.882,22.882,0,0,0-4.465,8.681,32.544,32.544,0,0,1,6.806-16.36c4.69-6.01,11.292-10.125,18.153-13.259,3.75-1.715,7.623-3.157,11.387-4.836,3.315-1.477,6.589-3.055,9.761-4.826A47.077,47.077,0,0,0,64.28,195.96ZM6.758,248.578a25.529,25.529,0,0,1,8.358-13.024c4.758-4.158,10.639-6.766,16.485-9,5.786-2.213,11.714-4.114,17.248-6.937a41.682,41.682,0,0,0,8.971-6.017,52.183,52.183,0,0,1-4.492,5.38,48.656,48.656,0,0,1-7.48,6.383,49.223,49.223,0,0,1-9.127,4.882c-6.65,2.761-13.736,4.586-19.937,8.342A27.014,27.014,0,0,0,6.758,248.578ZM62.436,227.09c.231-.371.442-.749.64-1.133a.138.138,0,0,1,.034.04c-.02.1-.041.2-.068.3a20.018,20.018,0,0,1-2.838,6.455,17.756,17.756,0,0,1-4.465,4.456c-2.138,1.521-4.445,2.781-6.691,4.129A57.208,57.208,0,0,0,42.5,245.91c-2.076,1.673-4.057,3.464-6,5.293-1.893,1.789-3.771,3.6-5.561,5.491a47.363,47.363,0,0,0-6.609,8.528,55.887,55.887,0,0,1,4.315-8.844,54.238,54.238,0,0,1,11.66-13.645,49.626,49.626,0,0,1,7.426-5.123c3.281-1.843,6.746-3.384,9.863-5.515A16.657,16.657,0,0,0,62.436,227.09ZM21.508,282.307c-.041-.169-.088-.337-.122-.508-.021-.086-.034-.173-.048-.26a22.413,22.413,0,0,1,4.587-10.319c3.458-4.082,8.325-6.613,12.6-9.708a74.286,74.286,0,0,0,11.551-10.3,65.412,65.412,0,0,0,8.855-12.329q.552-1,1.062-2.021.255-.363.49-.735-.521,1.363-1.123,2.7a56.742,56.742,0,0,1-8.61,13.375A89.113,89.113,0,0,1,39.43,263.1c-2.273,1.868-4.615,3.635-6.963,5.409a36.146,36.146,0,0,0-7.27,6.792A24.551,24.551,0,0,0,21.508,282.307Zm40.581-34.053q.041,1.673.1,3.346-.01.513-.02,1.026a45.994,45.994,0,0,1-5.915,12.959c-3.1,4.908-6.833,9.36-10.21,14.079-3.349,4.684-6.439,9.7-8.1,15.262a28.055,28.055,0,0,0-1.218,8.292,36.832,36.832,0,0,0,1.327,8.857,75.815,75.815,0,0,0,5.432,14.583,29.193,29.193,0,0,0,1.287,3.25,71.569,71.569,0,0,1-6.752-14.658A42.919,42.919,0,0,1,36.952,292.9a42.254,42.254,0,0,1,3.955-10.623,48.187,48.187,0,0,1,5.1-7.481c3.362-4.17,6.915-8.177,9.815-12.7A52.554,52.554,0,0,0,62.088,248.254Zm-13.96,87.059-.061-.1a.134.134,0,0,1,.027.035.217.217,0,0,0,.143.076,1.965,1.965,0,0,1,.034.2C48.224,335.455,48.176,335.385,48.128,335.313Zm-1.157-16.546a70.751,70.751,0,0,0,1.15,15.85c-.32-.4-.626-.812-.919-1.235-.15-.214-.286-.43-.422-.648q-.072-.529-.143-1.059a115.5,115.5,0,0,1-1.1-16.079,52.71,52.71,0,0,1,2.28-15.478,36.727,36.727,0,0,1,3.138-7.125c1.375-2.372,3.117-4.5,4.485-6.878a34.352,34.352,0,0,0,3.009-7.844c.823-2.848,1.633-5.7,2.45-8.547.17-.577.333-1.154.5-1.731,0,.025-.007.05-.007.075A102.771,102.771,0,0,1,57.93,283.6c-.068.226-.143.45-.218.675a.188.188,0,0,0-.129.159c-.013.112-.02.224-.027.336-1.722,5.293-3.948,10.405-5.936,15.6C49.354,306.284,47.38,312.409,46.971,318.767ZM56.4,291.616c.313-.808.619-1.619.912-2.431a57.086,57.086,0,0,0,.926,10.325A98.979,98.979,0,0,0,61.66,312.7c1.436,4.417,3.07,8.77,4.676,13.128q2.624,7.1,5.241,14.206,2.134,5.8,4.281,11.6c-.442-.655-.892-1.3-1.361-1.934-1.545-2.068-3.158-4.081-4.663-6.177-1.552-2.162-3.042-4.371-4.445-6.637A74.917,74.917,0,0,1,58.413,322.6a57.261,57.261,0,0,1-3.063-15.108A55.752,55.752,0,0,1,56.4,291.616Zm20.5,61.659c-.108-.31-.225-.619-.34-.93q-2.593-7.041-5.193-14.082t-5.193-14.082c-1.593-4.314-3.185-8.628-4.567-13.014a90.2,90.2,0,0,1-3.213-13.231,54.123,54.123,0,0,1-.64-9.948c.728-2.039,1.409-4.1,1.994-6.186.082-.283.157-.568.231-.852a45.825,45.825,0,0,0,.912,8.341,110.259,110.259,0,0,0,5.84,18.242c2.553,6.583,5.125,13.157,7.658,19.747a98.234,98.234,0,0,1,3.179,9.33,64.279,64.279,0,0,1,1.62,9.09c.368,2.951.708,5.906.919,8.872a60.383,60.383,0,0,1,.184,6.472,21.78,21.78,0,0,0-1.988-5.278C77.873,354.917,77.4,354.09,76.9,353.275Zm5.718,1.038a66.712,66.712,0,0,0,.612-15.709,41.389,41.389,0,0,0-1.892-9.22,57,57,0,0,0-4.029-8.948c-1.545-2.892-3.165-5.744-4.649-8.669-1.436-2.837-2.791-5.721-4.009-8.66a83.779,83.779,0,0,1-5.125-16.952,70.334,70.334,0,0,1-.933-17.526.385.385,0,0,0-.014-.094c.136-.944.266-1.888.381-2.835.041-.333.075-.668.109-1,.449,4.444,1.048,8.87,1.858,13.262a114.949,114.949,0,0,0,5.479,20,133.743,133.743,0,0,0,6.133,13.466c1.191,2.317,2.423,4.622,3.437,7.022a54.879,54.879,0,0,1,3.873,14.951A59.3,59.3,0,0,1,82.617,354.313ZM66,262.7a44.849,44.849,0,0,0,2.471,4.818,136.06,136.06,0,0,0,8.958,12.543A75,75,0,0,1,85.4,292.744a62.866,62.866,0,0,1,4.69,13.5q.643,2.828,1.007,5.707a63.339,63.339,0,0,0-3.029-9.41,82.88,82.88,0,0,0-8.712-15.887c-1.913-2.766-3.941-5.455-5.813-8.25a61.1,61.1,0,0,1-4.587-8.053A59.382,59.382,0,0,1,66,262.7ZM93.2,316.2v-.107a41.076,41.076,0,0,0,.436-4.838c.647-4.866,1.715-9.7,1.368-14.631a29.847,29.847,0,0,0-5.187-14.134A81.21,81.21,0,0,0,79.8,270.612a117.711,117.711,0,0,1-10.414-11.586,36.113,36.113,0,0,1-5.677-10.633c.034-.98.082-1.96.129-2.939a35.01,35.01,0,0,0,4.05,7.46c3.818,5.5,8.645,10.24,13.171,15.139,4.288,4.639,8.46,9.481,11.476,15.072a31.64,31.64,0,0,1,4.125,17.758,59.346,59.346,0,0,1-2.144,10.6C94.079,313.052,93.637,314.624,93.2,316.2Zm-50.43,7.991A70.456,70.456,0,0,1,37.918,309.7a30.591,30.591,0,0,1-.694-8.864,30.129,30.129,0,0,1,1.981-8.308c2.117-5.469,5.459-10.372,8.951-15.042a144.568,144.568,0,0,0,9.876-14.031,44.9,44.9,0,0,0,4.125-9.282c0,.217-.007.432-.007.648a67.99,67.99,0,0,1-4.526,14.561c-2.348,5.5-5.187,10.781-7.923,16.1-1.375,2.665-2.723,5.341-3.982,8.063a53.2,53.2,0,0,0-3.458,8.913,37.252,37.252,0,0,0-.878,9.795,59.5,59.5,0,0,0,.64,8.234C42.22,321.727,42.465,322.965,42.771,324.187Zm21.053-71.776a.158.158,0,0,0-.068-.025v-.245C63.777,252.231,63.8,252.321,63.824,252.411ZM91.908,316a63.471,63.471,0,0,0-1.77-11.363,63.91,63.91,0,0,0-4.989-13.34,83.471,83.471,0,0,0-8.243-12.6A104.075,104.075,0,0,1,68.14,266.11a31.494,31.494,0,0,1-4.213-13.318,49.629,49.629,0,0,0,3.662,9.31,58.726,58.726,0,0,0,9.42,13.215c2.1,2.24,4.3,4.378,6.269,6.735a41.328,41.328,0,0,1,4.452,6.5,44.33,44.33,0,0,1,5.023,14.813,43.853,43.853,0,0,1,.463,8.014c-.2,1.519-.354,3.042-.415,4.574-.136.967-.3,1.93-.511,2.886C92.187,317.888,92.058,316.943,91.908,316Zm.429,3.288c-.007-.042-.007-.085-.014-.127a.278.278,0,0,0,.041.027C92.357,319.222,92.344,319.256,92.337,319.289ZM93.63,308.5a44.587,44.587,0,0,0-6.248-21.374,42.856,42.856,0,0,0-4.778-6.49c-2.069-2.324-4.315-4.476-6.392-6.794a56.762,56.762,0,0,1-8.978-13.382,48.144,48.144,0,0,1-3.5-10.178c0-.172-.007-.343-.007-.515a39.291,39.291,0,0,0,6.194,10.646,154.758,154.758,0,0,0,10.537,11.474,70.62,70.62,0,0,1,9.808,12.088,32.345,32.345,0,0,1,3.192,6.862,25.555,25.555,0,0,1,1.2,8.1A69.345,69.345,0,0,1,93.63,308.5ZM80.7,360.524a113.187,113.187,0,0,0-1.328-16.611,55.426,55.426,0,0,0-1.919-9.168c-.96-3.148-2.145-6.219-3.335-9.285q-3.818-9.854-7.637-19.708c-2.314-6.02-4.533-12.143-5.547-18.538a42.114,42.114,0,0,1-.524-7.905q.94-3.664,1.613-7.388a69.965,69.965,0,0,0,1.436,16.065,87.034,87.034,0,0,0,5.479,16.867c1.266,2.931,2.661,5.807,4.138,8.638,1.525,2.927,3.179,5.785,4.69,8.72a48.194,48.194,0,0,1,3.7,9.028,42.827,42.827,0,0,1,1.491,9.415,76.262,76.262,0,0,1-1.32,17.14Q81.215,359.169,80.7,360.524ZM45.127,317.711a124.669,124.669,0,0,0,1.116,14.156,26.167,26.167,0,0,1-1.62-3.306.181.181,0,0,0,.157-.268c-.313-.605-.626-1.214-.926-1.827a41.048,41.048,0,0,1-1.729-8.427,66.59,66.59,0,0,1-.313-8.637,34.217,34.217,0,0,1,.456-5.009,27.127,27.127,0,0,1,1.348-4.838,146.791,146.791,0,0,1,7.8-16.5,169.528,169.528,0,0,0,7.6-15.977,67.309,67.309,0,0,0,3.11-10.09q0,2.128.007,4.255a.7.7,0,0,0,.014.121q-.163,1.951-.388,3.895c-.681,2.351-1.348,4.7-2.021,7.052-.8,2.8-1.552,5.622-2.443,8.395a30.453,30.453,0,0,1-1.545,3.96,29.654,29.654,0,0,1-2.165,3.608,53.049,53.049,0,0,0-4.207,6.822,38.728,38.728,0,0,0-2.607,7.151A58.22,58.22,0,0,0,45.127,317.711ZM67.616,207.874c.027.1.047.2.075.293a136.122,136.122,0,0,0,5.649,17.352,95.64,95.64,0,0,0,8.317,16.124A81.718,81.718,0,0,0,87.15,249.1c2.1,2.531,4.309,4.969,6.357,7.546a46.743,46.743,0,0,1,8.413,16.119,45.292,45.292,0,0,1,1.688,15.2,86.23,86.23,0,0,0-5.452-16.7,86,86,0,0,0-9.931-16.89c-3.975-5.274-8.508-10.115-12.279-15.545a46.279,46.279,0,0,1-4.806-8.58,44.069,44.069,0,0,1-2.743-9.511A61.166,61.166,0,0,1,67.616,207.874ZM105.732,288a45.687,45.687,0,0,0-.463-25.209,47.565,47.565,0,0,0-4.05-8.955,108.47,108.47,0,0,0-12.388-16.825c-2.273-2.646-4.622-5.225-6.854-7.9a86.674,86.674,0,0,1-5.956-8.011,66.524,66.524,0,0,1-6.9-13.744l.225.5c2.484,5.24,6.3,9.779,10.006,14.184,5.493,6.53,11.1,12.958,16.363,19.683a89.046,89.046,0,0,1,8.556,12.244c1.137,2.1,2.178,4.247,3.1,6.444a30.067,30.067,0,0,1,2.008,6.033,31.17,31.17,0,0,1-.64,13.24A41.944,41.944,0,0,1,105.732,288ZM72.6,182.847a.335.335,0,0,0,.027.078,38.866,38.866,0,0,0,3.492,7.988,45.069,45.069,0,0,0,6.494,8.023c2.661,2.773,5.336,5.532,8,8.31q4.043,4.237,8.073,8.5c2.464,2.613,4.941,5.215,7.317,7.909,4.547,5.163,8.671,10.761,11.108,17.248a42.9,42.9,0,0,1,2.661,17.535,27.284,27.284,0,0,0-1.381-5.583,87,87,0,0,0-4.063-9.566,102.635,102.635,0,0,0-10.816-17.483c-4.472-5.822-9.652-11.019-14.661-16.365-4.744-5.062-9.407-10.381-12.626-16.572A37.921,37.921,0,0,1,72.6,182.847Zm48.245,76.6a53.869,53.869,0,0,0,1.409-21.388,44.421,44.421,0,0,0-2.593-10.127,36.607,36.607,0,0,0-5.452-9.427,70.461,70.461,0,0,0-8.174-8.407c-3.179-2.86-6.466-5.586-9.835-8.22-3.322-2.6-6.718-5.12-10.135-7.605a36.562,36.562,0,0,1-7.922-7.545,42.5,42.5,0,0,1-5.82-11.767c.075-.425.157-.849.231-1.273a32.007,32.007,0,0,0,2.995,6.64,39.159,39.159,0,0,0,6.746,8.223,69.72,69.72,0,0,0,8.739,7c3.792,2.584,7.76,4.9,11.51,7.54a51.382,51.382,0,0,1,5.329,4.233,66.418,66.418,0,0,1,4.629,4.8,57.7,57.7,0,0,1,8.038,11.238,29.929,29.929,0,0,1,3.383,9.889,51.955,51.955,0,0,1,.333,10.021,55.3,55.3,0,0,1-1.763,11.364A36.013,36.013,0,0,1,120.843,259.449Zm-.6-19.8a47.148,47.148,0,0,0-8.984-18.728c-4.629-5.836-10.414-10.6-16.118-15.34-5.479-4.564-10.945-9.2-15.369-14.836A38.736,38.736,0,0,1,72.5,176.745c.5,1.366,1.042,2.718,1.654,4.04a32.469,32.469,0,0,0,8.569,11.41c1.511,1.3,3.151,2.45,4.765,3.631,3.4,2.489,6.766,5.019,10.06,7.645s6.507,5.341,9.6,8.2a58.394,58.394,0,0,1,7.97,8.723,40.6,40.6,0,0,1,7,20.027,53.855,53.855,0,0,1-1.117,16.74A47.914,47.914,0,0,0,120.244,239.654Zm-48.122-60.1a28.132,28.132,0,0,1-.1-2.935v-.007a40.236,40.236,0,0,0,8.651,15.909c4.608,5.475,10.155,10.005,15.628,14.57,5.7,4.75,11.415,9.628,15.818,15.652A46.591,46.591,0,0,1,120.3,241.98a47.149,47.149,0,0,1-.225,17.981q.061-.617.1-1.236a43.393,43.393,0,0,0-3.39-19.732c-2.709-6.334-7.011-11.786-11.6-16.865-5.071-5.619-10.346-11.06-15.587-16.524-2.593-2.708-5.228-5.375-7.793-8.112a37.238,37.238,0,0,1-6.085-8.145,42.239,42.239,0,0,1-3.227-8.312C72.36,180.549,72.237,180.055,72.122,179.555ZM23.985,272.84a30.42,30.42,0,0,1,4.4-6.474c1.933-2.188,4.1-4.179,6.2-6.206a173.471,173.471,0,0,1,13.062-11.542c3.8-2.993,7.705-5.983,10.809-9.727-.313.555-.626,1.105-.953,1.651a66.591,66.591,0,0,1-9.352,12.12A75.613,75.613,0,0,1,36.142,262.67c-4.349,2.936-9.094,5.735-12,10.254a19.983,19.983,0,0,0-1.035,1.819Q23.516,273.778,23.985,272.84ZM20.766,281.1c.014-.116.014-.23.027-.346.007.043.007.087.014.131Zm.375,1.451c.041.165.082.329.129.494-.184.6-.354,1.214-.49,1.83C20.882,284.094,21,283.319,21.141,282.547ZM104,288.459a46.048,46.048,0,0,0-5.813-25.694,54.63,54.63,0,0,0-5.432-7.711c-2.1-2.535-4.309-4.972-6.357-7.544a78.166,78.166,0,0,1-5.261-7.462,97.861,97.861,0,0,1-8.127-16.488,141.612,141.612,0,0,1-5.323-17.1l.062-.956a49.8,49.8,0,0,0,2.423,8.08,67.863,67.863,0,0,0,5.159,9.956c2.008,3.331,4.009,6.682,6.29,9.833,2.28,3.134,4.928,5.953,7.426,8.9a73.188,73.188,0,0,1,10.285,16.082A64.375,64.375,0,0,1,105,276.269a31.6,31.6,0,0,1-.776,14.532c-.014.023-.034.046-.048.07-.054-.305-.1-.611-.156-.916-.034-.172-.075-.344-.109-.516C103.942,289.112,103.976,288.786,104,288.459Zm1.518-1.2a37.06,37.06,0,0,0-.388-12.764,67.649,67.649,0,0,0-6.174-17.867,76.619,76.619,0,0,0-4.758-8.215,76.353,76.353,0,0,0-6.078-7.852,97.745,97.745,0,0,1-7.283-9.029c-2.212-3.234-4.227-6.611-6.215-9.985A56.722,56.722,0,0,1,69.76,211.28a48.133,48.133,0,0,1-1.361-4.76,67.75,67.75,0,0,0,8.393,16.459c3.859,5.6,8.535,10.522,12.918,15.7A95.954,95.954,0,0,1,101.8,255.75a42.939,42.939,0,0,1,3.56,8.811,44.683,44.683,0,0,1,1.457,9.383A42.471,42.471,0,0,1,105.514,287.257ZM23.679,267.294c2.3-4.649,5.792-8.6,9.434-12.241a105.588,105.588,0,0,1,11.925-10.579,77.858,77.858,0,0,1,6.6-4.189,38.313,38.313,0,0,0,6.221-4.215,18.3,18.3,0,0,0,4.9-7.452c-.157.68-.32,1.356-.5,2.029a59.431,59.431,0,0,1-2.648,6.042,32.01,32.01,0,0,1-3.049,3.717c-3.784,3.978-8.345,7.1-12.544,10.6-4.39,3.66-8.488,7.65-12.585,11.631a45.155,45.155,0,0,0-5.4,6.009,31.3,31.3,0,0,0-3.553,6.523,32.248,32.248,0,0,0-1.409,4.478c-.034-.376-.054-.751-.061-1.127a53.134,53.134,0,0,1,.953-5.562q.572-2.511,1.382-4.963C23.455,267.76,23.563,267.525,23.679,267.294ZM12.251,234.23c4.159-4.272,9.379-7.408,14.423-10.508q8.239-5.066,16.812-9.567c2.682-1.407,5.4-2.731,8.093-4.124a40.156,40.156,0,0,0,7.065-4.432,23.293,23.293,0,0,0,5.411-6.488,52.29,52.29,0,0,0,2.859-5.991c-.088.612-.177,1.223-.259,1.835l-.286,2.277a68.7,68.7,0,0,1-2.784,6.634,62.3,62.3,0,0,1-4.608,8.081,42.618,42.618,0,0,1-13.171,8.664c-5.731,2.584-11.761,4.42-17.567,6.831-5.717,2.373-11.279,5.357-15.574,9.9A24.056,24.056,0,0,0,6.078,250.01c-.129.305-.259.615-.375.928-.041-.359-.088-.718-.123-1.078-.034-.38-.047-.759-.068-1.138C5.581,243.223,8.487,238.095,12.251,234.23ZM15.77,191.2a39.1,39.1,0,0,1,3.464-3.093c1.171-.948,2.342-1.887,3.533-2.8a67.971,67.971,0,0,1,7.624-5.195,31.364,31.364,0,0,1,8.426-3.46c1.641-.378,3.329-.585,4.989-.847s3.281-.556,4.908-.922a49.613,49.613,0,0,0,14.967-5.537,25.037,25.037,0,0,0,5.806-4.761,20.719,20.719,0,0,0,2.607-3.686c-.075.407-.15.813-.231,1.22l-.306,1.761a24.264,24.264,0,0,1-3.955,5A46.81,46.81,0,0,1,56.535,176.7a23.5,23.5,0,0,1-3.131,1.5c-.605.216-1.232.391-1.852.554-1.694.44-3.4.8-5.1,1.185-2.165.49-4.315,1.007-6.446,1.6a73.365,73.365,0,0,0-7.256,2.426,54.172,54.172,0,0,0-7.446,3.618,43.662,43.662,0,0,0-7.147,5.215,40.184,40.184,0,0,0-6.282,7.182A42.906,42.906,0,0,0,7.9,207.267v-.053A27.438,27.438,0,0,1,15.77,191.2ZM79.4,147.281a33.4,33.4,0,0,0,3.887,10.35c3.206,5.636,7.821,10.3,12.742,14.453,5.071,4.267,10.516,8.046,15.642,12.236,5.023,4.1,9.788,8.639,13.273,14.147a40.642,40.642,0,0,1,6.119,18.24.181.181,0,0,0,.15.17l.062,1.2c-.027.054-.055.109-.089.164-.007-.21-.014-.42-.034-.63-.585-7.339-3.968-14.232-8.406-20-4.969-6.468-11.265-11.74-17.445-17.005q-5.023-4.29-10.067-8.582a84.432,84.432,0,0,1-8.324-7.819,28.217,28.217,0,0,1-7.038-13.077A27.242,27.242,0,0,1,79.4,147.281Zm52.247,69.959c-.014-.219-.021-.437-.041-.655a59.133,59.133,0,0,0-13.422-33.395,80.188,80.188,0,0,0-7.2-7.393q-4.206-3.914-8.419-7.815c-5.221-4.841-10.7-9.557-15.049-15.228a34.684,34.684,0,0,1-6.283-12.382,32.486,32.486,0,0,0,2.267,4.309,28.072,28.072,0,0,0,6.827,7.154c2.675,2.058,5.493,3.926,8.168,5.993,2.62,2.023,5.159,4.156,7.589,6.4a91.521,91.521,0,0,1,13.083,14.934,73.264,73.264,0,0,1,8.991,17.529,61.6,61.6,0,0,1,3.519,19.266c.007.266.415.211.408-.052-.007-.794-.041-1.587-.082-2.38a63.4,63.4,0,0,0-4.213-19.053,75.529,75.529,0,0,0-9.468-17.215,94.414,94.414,0,0,0-13.3-14.552c-2.5-2.236-5.1-4.354-7.787-6.361s-5.541-3.852-8.127-6.01a27.127,27.127,0,0,1-3.627-3.607,25.844,25.844,0,0,1-2.729-4.152,42.627,42.627,0,0,1-1.974-4.37c-.116-.7-.2-1.409-.259-2.13.014-.068.027-.143.048-.211a13.915,13.915,0,0,0,4.485,5.813,74.819,74.819,0,0,0,8.855,5.738c6.731,4.091,13.45,8.318,19.283,13.645a47.693,47.693,0,0,1,12.19,16.591,54.762,54.762,0,0,1,2.94,11.147c.374,1.981.742,3.962,1.245,5.914.49,1.928,1.089,3.827,1.654,5.733a30.725,30.725,0,0,1,1.708,10.5A19.748,19.748,0,0,1,131.645,217.24Zm-53.22-88.309a44.512,44.512,0,0,1-3.077,5.132,34.621,34.621,0,0,1-3.927,4.764,24.648,24.648,0,0,1-4.288,3.363,58.963,58.963,0,0,1-9.815,4.615,81.12,81.12,0,0,0-10.278,4.581c-1.9,1.082-3.736,2.277-5.608,3.408a53.2,53.2,0,0,1-5.363,2.856c-6.779,3.112-14.158,4.931-20.6,8.787a31.757,31.757,0,0,0-8.617,7.63,47.346,47.346,0,0,0-3.192,4.62,42.432,42.432,0,0,1,3.717-6.607,41.6,41.6,0,0,1,7.065-7.835,54.822,54.822,0,0,1,11.5-7.514,76.44,76.44,0,0,1,7.719-3.3c3.077-1.129,6.208-2.021,9.359-2.913a91.122,91.122,0,0,0,16.724-6.364,53.081,53.081,0,0,0,11.013-7.283,39.1,39.1,0,0,0,6.7-7.508q.9-1.337,1.681-2.743-.072.316-.143.633Q78.721,128.1,78.424,128.931Zm1.933,9.352c.987,6.044,4.152,11.544,8.018,16.221a85.476,85.476,0,0,0,7.147,7.49c2.7,2.562,5.445,5.073,8.168,7.6,2.811,2.6,5.636,5.187,8.413,7.818a66.559,66.559,0,0,1,6.84,7.385,58.8,58.8,0,0,1,11.347,24.984,41.017,41.017,0,0,0-6.023-13.078c-3.7-5.311-8.542-9.693-13.572-13.71-5.167-4.123-10.6-7.909-15.587-12.25-4.873-4.236-9.338-9.05-12.286-14.842A30.585,30.585,0,0,1,79.4,143.769a46.551,46.551,0,0,1,.763-5.976C80.228,137.956,80.29,138.119,80.357,138.283Zm.292-18.841c.075-.122.157-.245.231-.367q-.7,3.012-1.4,6.024a37.551,37.551,0,0,1-3.757,5.942,41.052,41.052,0,0,1-7.739,7.549,61.16,61.16,0,0,1-12.572,7.14c-2.75,1.2-5.574,2.239-8.426,3.158-3.213,1.041-6.494,1.844-9.706,2.865a75.978,75.978,0,0,0-15.267,6.623,50.046,50.046,0,0,0-10.108,7.654,40.67,40.67,0,0,0-6.132,7.758,46.824,46.824,0,0,0-3.451,6.97c-.088.219-.17.441-.259.661-.17.307-.333.615-.5.924a29.071,29.071,0,0,1,2.675-8.165,53.918,53.918,0,0,1,5.506-8.959c4.07-5.439,8.958-10.709,15.1-13.793a36.8,36.8,0,0,1,10.911-3.083,113.565,113.565,0,0,0,11.476-2.355,94.979,94.979,0,0,0,11.258-3.771,48.2,48.2,0,0,0,9.9-5.112,27.724,27.724,0,0,0,7.283-7.875,80.668,80.668,0,0,0,4.976-9.6A.193.193,0,0,0,80.65,119.442ZM91.2,99.281c.007-.66.034-1.32.068-1.98a32.663,32.663,0,0,0,.783,4.254c1.981,7.964,6.419,15.24,11.4,21.665,2.157,2.784,4.451,5.472,6.8,8.093,1.137,1.273,2.287,2.525,3.505,3.723,1.532,1.5,3.2,2.865,4.744,4.356,3.812,3.662,7.494,7.521,10.979,11.5a63.866,63.866,0,0,1,8.719,12.353,55.3,55.3,0,0,1,6.269,24.608,59.962,59.962,0,0,0-5.649-18.033,44.442,44.442,0,0,0-6.861-9.916c-3.233-3.489-7.072-6.282-10.8-9.21a94.907,94.907,0,0,1-17.452-17.629,64.917,64.917,0,0,1-10.856-21.808A45.641,45.641,0,0,1,91.2,99.281Zm.966-8.685a53.973,53.973,0,0,0,7.9,17.5c3.886,5.629,8.746,10.428,13.647,15.165q5.1,4.931,10.217,9.876c2.9,2.8,5.779,5.629,8.4,8.692a45.994,45.994,0,0,1,6.644,9.876,46.036,46.036,0,0,1,3.525,12.721q2.114,13.156,2.981,26.472c-.123.6-.252,1.192-.4,1.785-.061-.678-.136-1.356-.217-2.034.034-1.041.047-2.082.02-3.124a55.553,55.553,0,0,0-7.535-26.669,72.022,72.022,0,0,0-9.264-12.139c-3.533-3.866-7.154-7.7-11.013-11.238-1.361-1.252-2.756-2.437-4.043-3.771s-2.512-2.7-3.723-4.091c-2.341-2.682-4.642-5.411-6.752-8.277-4.717-6.405-8.931-13.654-10.476-21.55a28.48,28.48,0,0,1-.558-5.248C91.684,93.224,91.9,91.9,92.167,90.6Zm-77.86,42.84a43.876,43.876,0,0,1,10.7-7.685c3-1.62,6.092-3.049,9.175-4.492,3.56-1.661,7.113-3.342,10.727-4.887a62.982,62.982,0,0,1,10.761-3.594c3.581-.817,7.215-1.423,10.72-2.546a35.577,35.577,0,0,0,14.519-9A40.286,40.286,0,0,0,87.586,92.1c-.259.98-.518,1.967-.769,2.954-.123.327-.238.654-.361.98-.361.81-.742,1.606-1.15,2.389-.783.946-1.613,1.865-2.478,2.743a54.235,54.235,0,0,1-6.691,5.663,80.021,80.021,0,0,1-9.468,5.833,122.444,122.444,0,0,1-12.783,5.779,160.319,160.319,0,0,1-16.411,5.438c-2.743.735-5.541,1.239-8.263,2.021a28.128,28.128,0,0,0-7.433,3.349,52.392,52.392,0,0,0-9.318,8.032c-.8.606-1.572,1.232-2.321,1.885C11.441,137.2,12.83,135.281,14.307,133.437ZM146.136,193.6a70.631,70.631,0,0,0,1.491-26.013,62.164,62.164,0,0,0-8.426-24.235c-4.391-7.208-10.21-13.4-16.248-19.242-6.064-5.881-12.429-11.469-18.153-17.7a79.645,79.645,0,0,1-7.658-9.509,24.836,24.836,0,0,1-3.9-10.25q2.9-10.159,6-20.256,4.86-15.835,10.148-31.528,2.665-7.831,5.425-15.635c1.852-5.193,3.744-10.4,5.7-15.505l.007-.02a2.731,2.731,0,0,0-5.1-1.96c0,.013-.014.034-.014.041-1.919,5.255-3.723,10.475-5.507,15.737s-3.5,10.523-5.2,15.8Q99.63,49.172,95.019,65.14,92.5,73.849,90.118,82.6a.634.634,0,0,0-.068.136c-.327.783-.667,1.559-1.035,2.328A34.946,34.946,0,0,1,83.924,92.9a50,50,0,0,1-6.936,6.426,45.168,45.168,0,0,1-8.971,5.894,51.375,51.375,0,0,1-10.155,3.213c-6.957,1.545-14.124,2.375-20.719,5.227a58.5,58.5,0,0,0-17.309,11.864A78.22,78.22,0,0,0,6.745,142.265a.5.5,0,0,0-.047.327.639.639,0,0,0,1.1.572c.688-.742,1.4-1.463,2.144-2.151a45.592,45.592,0,0,1,10.067-7,60.2,60.2,0,0,1,10.679-4.247,63.073,63.073,0,0,1,9.448-2.021c1.266-.17,2.545-.306,3.825-.381,2.028-.116,4.063-.061,6.092-.089a38.869,38.869,0,0,0,9.992-1.232,32.747,32.747,0,0,0,7.725-3.233,35.761,35.761,0,0,0,7.126-5.445,44.721,44.721,0,0,0,6.337-7.834,58.639,58.639,0,0,0,3.472-6.187q-1.419,5.687-2.791,11.387a.655.655,0,0,0-.123.191c-.395.8-.817,1.586-1.259,2.362A45.226,45.226,0,0,1,55.241,137.65c-4.084,1.327-8.3,2.178-12.463,3.172a95.517,95.517,0,0,0-20.454,6.861c-6.425,3.186-12.258,7.68-16.118,13.811A43.168,43.168,0,0,0,.095,187.01c.048.745,1.116.654,1.225-.008a.591.591,0,0,0,.449-.344c.422-.9.871-1.788,1.354-2.658a38.184,38.184,0,0,1,6.643-8.724,41.753,41.753,0,0,1,8.27-6.163,65.3,65.3,0,0,1,9.237-4.281c3.253-1.241,6.568-2.3,9.89-3.339,3.342-1.041,6.691-2.055,10-3.189a87.078,87.078,0,0,0,9.658-3.879,50.1,50.1,0,0,0,8.917-5.441,40.084,40.084,0,0,0,7.644-7.8,43.365,43.365,0,0,0,4.009-6.616q-2.4,11.119-4.526,22.287c-2.8,4.464-7.644,7.368-12.51,9.114-6.562,2.352-13.641,2.537-20.413,3.953A46.573,46.573,0,0,0,22.2,177.645,37.566,37.566,0,0,0,9.631,192.6a40.849,40.849,0,0,0-3.063,20.192.5.5,0,0,0,.027.178.558.558,0,0,0,.606.4.584.584,0,0,0,.606-.512,17.427,17.427,0,0,1,.49-2.288c1.831-6.369,6.936-11.276,12.524-14.528,6.541-3.8,14.083-5.468,21.3-7.473,6.718-1.868,13.47-4.121,19.154-8.282a26.961,26.961,0,0,0,6.875-7.166c.824-1.29,1.688-2.554,2.471-3.869q-.072.407-.143.815a.208.208,0,0,0-.129.27,1.847,1.847,0,0,0,.055.182q-1.5,8.843-2.8,17.718a24.313,24.313,0,0,1-5.561,8.292c-3.894,3.885-8.849,6.817-13.749,9.333-3.485,1.792-7.065,3.4-10.68,4.918-3.689,1.544-7.4,2.991-10.952,4.833-6.82,3.536-13.089,8.273-17.221,14.853-4.152,6.6-6.221,14.68-4.683,22.422a.6.6,0,0,0,.307.426.647.647,0,0,0,1.239-.075,16.171,16.171,0,0,1,.667-2.175c2.294-5.939,7.685-10.171,13.225-12.945,6.6-3.3,13.845-5.032,20.467-8.284a49.317,49.317,0,0,0,15.7-12.355A58.729,58.729,0,0,0,63.9,206.026a36.866,36.866,0,0,0,1.845-3.756q-1.052,8.769-1.858,17.566c-.048.253-.1.506-.157.757a18.266,18.266,0,0,1-3.546,7.513,21.734,21.734,0,0,1-6.446,4.9c-3.11,1.733-6.343,3.236-9.338,5.176a50.815,50.815,0,0,0-7.106,5.559,56.3,56.3,0,0,0-11.034,14.333,57.138,57.138,0,0,0-6,17.051,52.583,52.583,0,0,0-.149,18.028.62.62,0,0,0,.769.5.608.608,0,0,0,.688-.678c-.088-.776-.143-1.557-.157-2.339a23.732,23.732,0,0,1,6.779-16.883,70.96,70.96,0,0,1,7.848-6.368c2.124-1.623,4.213-3.305,6.242-5.05a82.529,82.529,0,0,0,10.979-11.22,56.2,56.2,0,0,0,8.154-13.923c.565-1.407,1.062-2.837,1.5-4.285-.034.646-.075,1.292-.109,1.938-.075.329-.143.661-.2,1-.068.432-.109.863-.143,1.294l-.021.124c-.245,1.967-.381,3.947-.429,5.929a.026.026,0,0,1-.007.021c-.17.93-.367,1.855-.585,2.774a51.69,51.69,0,0,1-8.147,17.676c-3.008,4.261-6.562,8.082-9.713,12.229a43.634,43.634,0,0,0-8.46,20.235,45.429,45.429,0,0,0,2.688,22.263c2.655,7.132,6.644,13.687,10.877,19.978a.531.531,0,0,0,.646.223.569.569,0,0,0,.626-.676c-.136-.785-.266-1.569-.4-2.354-1.075-6.391-1.926-12.907-1.062-19.378.837-6.329,3.09-12.346,5.432-18.248l.368-.916a60.338,60.338,0,0,0-.014,12.346,58.06,58.06,0,0,0,3.512,15.089,79.324,79.324,0,0,0,7.283,14.231c1.437,2.265,2.961,4.474,4.554,6.638,1.47,2.007,3.056,3.929,4.5,5.955a37.046,37.046,0,0,1,3.635,6.187,14.677,14.677,0,0,1,1.6,6.392.529.529,0,0,0,.116.476.574.574,0,0,0,.408.252.61.61,0,0,0,.286-.034.092.092,0,0,0,.034-.013.278.278,0,0,0,.048-.018.7.7,0,0,0,.082-.048c.007-.006.021-.012.027-.019s.027-.022.041-.035a.538.538,0,0,0,.17-.266c.5-1.112.974-2.24,1.4-3.385a59.871,59.871,0,0,0,2.682-30.68A54.417,54.417,0,0,0,80,315.489c-.926-1.9-1.913-3.767-2.873-5.649A122.9,122.9,0,0,1,70.93,295.8a118.071,118.071,0,0,1-5.289-21c-.8-4.938-1.361-9.912-1.743-14.9a60.969,60.969,0,0,0,4.663,12.483,69.834,69.834,0,0,0,4.948,8.188c1.919,2.763,3.941,5.453,5.806,8.251A78.592,78.592,0,0,1,87.6,304.744a57.3,57.3,0,0,1,3.7,17.487.52.52,0,0,0,.51.522.628.628,0,0,0,.252.1.646.646,0,0,0,.7-.529l.735-2.635c.98-3.516,2.015-7.023,2.913-10.562a44.259,44.259,0,0,0,1.593-10.584,34.252,34.252,0,0,0-5.064-17.218c-3.206-5.552-7.473-10.36-11.823-15.028-4.52-4.843-9.3-9.6-12.939-15.172a28.271,28.271,0,0,1-4.152-9.392q.388-6.792.96-13.572.612-6.929,1.429-13.837a54.56,54.56,0,0,0,1.171,8.723,43.91,43.91,0,0,0,3.206,9.477,53.553,53.553,0,0,0,5.125,8.406c3.907,5.359,8.46,10.21,12.347,15.586a85.132,85.132,0,0,1,14.947,36.011.641.641,0,0,0,1.014.4.54.54,0,0,0,.3-.239q.837-1.313,1.572-2.686a42.681,42.681,0,0,0,4.465-12.952,28.828,28.828,0,0,0-.518-13.088,47.455,47.455,0,0,0-2.416-6.063c-1.014-2.2-2.13-4.358-3.356-6.448a64.393,64.393,0,0,0-4.111-5.982q-2.369-3.14-4.806-6.218c-5.207-6.557-10.748-12.824-16.1-19.26-3.533-4.25-7.167-8.69-9.3-13.841a22.089,22.089,0,0,1-1.641-6.558c.2-1.438.409-2.877.62-4.315.681-4.531,1.422-9.055,2.2-13.57a38.927,38.927,0,0,0,4.785,13.2c3.471,6.109,8.215,11.363,13.021,16.442,4.989,5.277,10.06,10.488,14.409,16.322a101.124,101.124,0,0,1,10.584,17.685,69.126,69.126,0,0,1,3.832,9.629c.953,3.257,1.389,6.847-.041,10.031a.62.62,0,0,0,1.137.5,1.155,1.155,0,0,0,.055-.134.828.828,0,0,0,.061-.065,25.193,25.193,0,0,0,1.43-2.2,36.549,36.549,0,0,0,3.879-10.643,58.572,58.572,0,0,0,1.28-11.314,47.192,47.192,0,0,0-.66-9.6,33.915,33.915,0,0,0-4.431-10.828,65.305,65.305,0,0,0-8.433-10.954,55.622,55.622,0,0,0-4.86-4.718,65.178,65.178,0,0,0-5.52-4.087c-3.839-2.58-7.841-4.913-11.6-7.619a64.081,64.081,0,0,1-8.161-6.922,34.629,34.629,0,0,1-6.371-8.695,30.482,30.482,0,0,1-2.457-6.884q.766-4.108,1.565-8.21,1.665-8.267,3.479-16.5a27.11,27.11,0,0,0,.837,6.534c1.382,5.266,4.561,9.85,8.3,13.723,2.723,2.812,5.717,5.331,8.692,7.866l10.026,8.55c6.092,5.193,12.231,10.5,16.894,17.059,4.207,5.907,7.229,12.987,7.133,20.339v.011a.547.547,0,0,0,.054.313.577.577,0,0,0,.477.379.487.487,0,0,0,.068,0,.551.551,0,0,0,.443-.166.613.613,0,0,0,.136-.167,11.817,11.817,0,0,0,1.116-1.81,20.611,20.611,0,0,0,1.893-9.622c-.089-3.748-1.28-7.38-2.355-10.939-.571-1.906-1.116-3.817-1.531-5.764-.436-2-.776-4.008-1.164-6.012a45.549,45.549,0,0,0-3.287-10.782,51.231,51.231,0,0,0-12.905-16.476c-6.01-5.268-12.858-9.465-19.671-13.589a50.021,50.021,0,0,1-8.44-5.751c-2.062-1.913-3.784-4.451-3.444-7.385a.535.535,0,0,0-.062-.381c.136-.592.272-1.191.416-1.783Q85.626,114.181,90,98.206a38.4,38.4,0,0,0,.041,3.859,50.412,50.412,0,0,0,2.328,11.952,68.055,68.055,0,0,0,11.714,21.57,103.593,103.593,0,0,0,18.105,17.479,62.953,62.953,0,0,1,10.23,9.245,44.811,44.811,0,0,1,6.364,10.309,66.954,66.954,0,0,1,5.336,23.87.521.521,0,0,0,.449.515.615.615,0,0,0,.742-.346C145.6,195.646,145.884,194.627,146.136,193.6Z" fill="#389a1b"/>
    </g>
  </g>
</svg>
