<svg xmlns="http://www.w3.org/2000/svg" width="433.961" height="452.081" viewBox="0 0 433.961 452.081">
  <g id="Latest_post" data-name="Latest post" transform="translate(168.98 -5873.378)">
    <g id="Handdrawn_Tropical_Leaf" data-name="Handdrawn Tropical Leaf" transform="translate(90.448 6325.459) rotate(-150)" opacity="0.15">
      <g id="Group_2066" data-name="Group 2066" transform="translate(0 0)">
        <path id="Path_9617" data-name="Path 9617" d="M2500.986-167.99l0,0Zm67.386,18.1a.254.254,0,0,0,.054-.02ZM2704.26-302.563a1.324,1.324,0,0,0,1.049.027c1.278-.632,2.373-4.467,1.756-11.394-3.533-39.69-29.329-67.536-69.01-74.5-10.9-1.912-21.518-.933-29.884,2.756-7.513,3.312-12.707,8.573-14.25,14.436a1.206,1.206,0,0,1-1.4.877,1.2,1.2,0,0,1-.965-1.337,34.277,34.277,0,0,0-2.49-15.28c-4.438-11.138-13.782-19.419-27.773-24.612-20.953-7.779-53.1-6.3-77.676,14.547-17.249,14.627-30.162,32.022-34.861,41.995-1.179,2.5-1.225,4.636-.586,5.255.415.4,1.448.241,2.762-.43.54-.274,1.163-.6,1.867-.971a126.96,126.96,0,0,1,27.844-11.239,157.992,157.992,0,0,1,50.51-4.3c6.944.515,12.685,4.362,12.541,8.4-.08,2.235-1.984,5.991-13.841,6.019-32.324.082-73.785,7.838-93.215,29.362-16.972,18.8-21.7,38.444-19.635,46.387.332,1.272.979,2.863,2.312,3.327.8.2,3.755-1.863,5.342-2.973l.2-.142c14.053-9.822,42.579-26.653,75.735-29a194.591,194.591,0,0,1,21.72-.638c5.411.278,7.6,1.048,7.8,2.746.2,1.676-1.757,3.007-6.755,4.594a122.963,122.963,0,0,1-15.74,3.573c-34.985,5.91-67.406,23.764-82.6,45.487-15.272,21.836-8.332,44.029,3.255,57.516.65.757,1.219,1.154,1.606,1.121,1.128-.1,2.845-2.965,4.834-6.287,1.456-2.431,3.268-5.457,5.592-8.72l.233-.33c15.563-21.957,42.988-34.093,63.254-40.407,7.347-2.29,10.834-1.358,12.465-.172a3.843,3.843,0,0,1,1.656,3.11c.04,3.069-5.047,6.042-15.078,10.793-14.17,6.71-43.4,24.241-52.618,42.559-8.541,16.979,9.573,36.144,15.526,42.442.867.918,1.441,1.525,1.729,1.909.875,1.166,1.489,1.668,2.057,1.68.674.014,2.005-.61,4.515-3.668,3.084-3.757,15.887-17.909,21.923-20.677,3.772-1.731,6.08-1.9,7.052-.5.91,1.3.778,3.492-6.3,10.633-1.829,1.846-3.663,3.6-5.438,5.29-8.2,7.827-14.678,14.01-13.365,21.968,2.013,12.2,7.9,19.549,13.6,26.658,6.673,8.326,13.006,16.227,12.126,30.647,10.483-10.874,24.223-14.806,36.454-18.3,15.1-4.32,27.027-7.733,25.834-22.928a.806.806,0,0,1,0-.1,104.679,104.679,0,0,0-1.365-14.136c-1.487-10.618-2.89-20.647,3.031-22.677a3.654,3.654,0,0,1,2.85.351c2.919,1.448,5.456,5.831,7.541,13.03,3.058,10.559,5.045,18.785,4.8,24.612a1.476,1.476,0,0,0,.493,1.208,2.063,2.063,0,0,0,1.689.432c1.8-.285,4.029-.536,6.609-.825,2.47-.278,5.271-.593,8.447-1.019,7.945-1.066,18.723-4.052,24.942-12.226,4.458-5.857,6.052-13.682,4.739-23.255-3.946-28.762-12.473-45.864-31.468-63.1-5.945-5.395-8.581-10.619-6.717-13.307,1.007-1.455,3.5-2.525,9.621.63,10.993,5.66,29.491,29.809,37.792,53.654A194.9,194.9,0,0,1,2647.4-140.5a1.759,1.759,0,0,0,1.122,1.382l.026.01a1.751,1.751,0,0,0,1.729-.275c2.985-2.343,7.1-5.659,9.764-8.149.294-.275.719-.653,1.253-1.126,33.79-29.952,29.226-53.1,19.446-67.236-21.636-31.287-34.254-38.789-40.318-42.4-.382-.227-.741-.44-1.079-.645-1.707-1.035-3.862-2.082-5.948-3.093-5.907-2.869-11.016-5.349-9.819-8.805a3.813,3.813,0,0,1,2.212-2.7c4.536-1.979,14.25,3.236,27.474,10.818,10.612,6.085,36.783,29.214,43.843,41.258a1.336,1.336,0,0,0,1.01.658,1.381,1.381,0,0,0,1.168-.431c5.073-5.384,13.295-16.734,11.383-32.258-2.437-19.787-15.839-38.918-34.976-49.927-20.347-11.7-34.87-19.332-35.013-19.407-3.682-1.8-9.786-5.294-8.956-8.3.476-1.721,2.449-3.183,13.572-2.239a65.9,65.9,0,0,1,17.271,4.039c17.8,6.608,33.045,19.276,39.858,25.514A6.384,6.384,0,0,0,2704.26-302.563Zm-48.218-83.523c30.778,11.424,50.339,37.3,53.423,71.942.39,4.38.507,11.99-3.088,13.768-1.117.553-2.994.715-5.583-1.655-8.761-8.02-31.728-26.895-55.707-28.928-9.185-.78-10.8.278-11.031.491.179,1,3.8,3.581,7.708,5.494.174.091,14.735,7.738,35.126,19.468,20.08,11.551,33.6,30.886,36.166,51.721,2.033,16.5-6.659,28.514-12.021,34.2a3.768,3.768,0,0,1-3.193,1.175,3.725,3.725,0,0,1-2.819-1.834c-6.316-10.773-31.755-33.96-42.963-40.388-9.088-5.21-21.535-12.347-25.31-10.7a1.413,1.413,0,0,0-.846,1.107,1.069,1.069,0,0,1-.044.147c-.536,1.445,5.174,4.217,8.586,5.874,2.134,1.036,4.341,2.107,6.145,3.2.332.2.686.412,1.06.635,6.212,3.692,19.133,11.377,41.07,43.095,10.334,14.943,15.282,39.288-19.83,70.412-.513.455-.923.818-1.207,1.082-2.725,2.548-6.9,5.912-9.92,8.285a4.2,4.2,0,0,1-4.117.617,4.175,4.175,0,0,1-2.628-3.234,192.359,192.359,0,0,0-8.349-31.085c-7.991-22.952-26.246-46.962-36.619-52.3-4.38-2.253-6.191-1.9-6.537-1.4-.65.938.546,4.878,6.355,10.15,19.468,17.664,28.2,35.161,32.236,64.556,1.4,10.232-.349,18.657-5.209,25.043-6.722,8.831-18.142,12.028-26.54,13.156-3.2.429-6.015.745-8.5,1.024-2.551.287-4.753.534-6.5.811a4.439,4.439,0,0,1-3.669-1.013,3.867,3.867,0,0,1-1.3-3.108c.229-5.5-1.718-13.51-4.71-23.842-3-10.375-6.285-12.01-7.307-11.768-4.016,1.467-2.692,10.918-1.412,20.058a106.8,106.8,0,0,1,1.387,14.436c1.319,17.116-12.073,20.947-27.577,25.382-12.89,3.688-27.5,7.869-37.753,20.321a1.212,1.212,0,0,1-1.413.338,1.2,1.2,0,0,1-.712-1.268c2.161-15.817-4.052-23.568-11.246-32.544-5.891-7.35-11.982-14.951-14.1-27.772-1.521-9.216,5.707-16.115,14.078-24.1,1.763-1.682,3.585-3.421,5.392-5.244,4.8-4.845,5.743-6.823,5.925-7.458a10.769,10.769,0,0,0-3.964,1.217c-5.146,2.36-17.31,15.442-21.065,20.016-2.649,3.228-4.573,4.588-6.43,4.548-1.743-.039-2.967-1.357-3.933-2.643-.206-.274-.8-.9-1.553-1.7-6.239-6.6-25.228-26.691-15.926-45.18,11.884-23.627,52.035-42.848,53.738-43.654,3.4-1.608,13.726-6.5,13.7-8.584a1.433,1.433,0,0,0-.661-1.19c-.608-.442-3.158-1.713-10.332.522-19.912,6.2-46.831,18.093-62,39.5l-.237.333c-2.269,3.184-4.053,6.166-5.487,8.561-2.707,4.52-4.341,7.248-6.7,7.449-1.229.106-2.42-.532-3.64-1.951-12.176-14.173-19.464-37.5-3.4-60.469,15.542-22.224,48.58-40.469,84.17-46.481,12.533-2.117,18.491-4.349,20.122-5.443-1.488-.511-6.966-1.443-26.572-.052-32.577,2.31-60.676,18.894-74.526,28.575l-.2.141c-3.49,2.441-5.736,3.879-7.5,3.279-1.269-.43-3-1.659-3.867-5-2.569-9.883,3.631-30.278,20.178-48.61,9.618-10.652,24.675-18.712,44.754-23.954,20.45-5.338,40.256-6.177,50.242-6.2,8.347-.021,11.378-2,11.439-3.7.074-2.094-3.9-5.44-10.311-5.913a155.573,155.573,0,0,0-49.728,4.227,124.759,124.759,0,0,0-27.327,11.04c-.713.374-1.346.706-1.891.984-3,1.533-4.667.854-5.535.012-1.54-1.492-1.507-4.638.083-8.013,4.807-10.2,17.961-27.946,35.484-42.805,25.323-21.473,58.463-22.99,80.073-14.969,18.323,6.8,26,17.948,29.221,26.1a39.117,39.117,0,0,1,2.56,10.62c6.417-10.2,23.055-17.443,44.556-13.673A100.03,100.03,0,0,1,2656.042-386.086Z" transform="translate(-2413.796 418.316)" fill="#389a1b"/>
        <path id="Path_9618" data-name="Path 9618" d="M2782.837,73.209c6.214-18.766,12.17-37.616,18.012-56.5q9.408-30.424,18.46-60.957,8.73-29.335,17.277-58.724,7.334-25.161,14.616-50.338c6.421-22.134,13.454-44.082,19.923-66.2q1.361-4.655,2.669-9.324c.415-1.483-1.842-2.335-2.259-.839-6.581,23.506-14.223,46.7-21.029,70.139q-7.121,24.53-14.239,49.061-8.451,29.044-17.037,58.049-9.033,30.449-18.335,60.817c-5.9,19.183-11.9,38.334-18.151,57.407q-1.076,3.288-2.164,6.571C2780.091,73.839,2782.35,74.685,2782.837,73.209Z" transform="translate(-2693.418 275.072)" fill="#389a1b"/>
        <path id="Path_9619" data-name="Path 9619" d="M2474.253,260.258c-1.8-8.008-.127-16.109,2.268-23.8a55.654,55.654,0,0,1,8.765-16.973c.994-1.309,2.041-2.575,3.128-3.808.3-.341.606-.681.912-1.016.139-.154.281-.308.423-.461l.232-.249c.033-.035.067-.07.1-.107.218-.231-.1.113.021-.022q.99-1.046,2.009-2.062a112.712,112.712,0,0,1,9.6-8.485,132.328,132.328,0,0,1,11.988-8.443,139.13,139.13,0,0,1,14.108-7.692,136.135,136.135,0,0,1,16.158-6.415,127.874,127.874,0,0,1,17.778-4.38,123.247,123.247,0,0,1,19.32-1.794,124.912,124.912,0,0,1,20.784,1.485q2.663.414,5.306.942a1.215,1.215,0,0,0,1.305-1.1,1.235,1.235,0,0,0-1.1-1.305,125.595,125.595,0,0,0-41.537-1.3,128.636,128.636,0,0,0-18.536,3.925,137.139,137.139,0,0,0-16.949,6.134,140.113,140.113,0,0,0-27.662,16.147,118.554,118.554,0,0,0-10.27,8.643,88.152,88.152,0,0,0-7.8,8.329,59.9,59.9,0,0,0-8.118,13.309,67.5,67.5,0,0,0-4.064,12.594,46.3,46.3,0,0,0-1.326,12.239,34.126,34.126,0,0,0,.785,6.079C2472.218,262.182,2474.595,261.777,2474.253,260.258Z" transform="translate(-2457.463 -31.907)" fill="#389a1b"/>
        <path id="Path_9620" data-name="Path 9620" d="M2432.654,12.38q1.009-2.747,2.292-5.383c.212-.439.432-.877.654-1.311q.164-.318.33-.633c.109-.208.013-.025-.008.015l.1-.181.2-.361q.735-1.346,1.53-2.657a76.351,76.351,0,0,1,7.669-10.455c1.568-1.8,2.889-3.2,4.615-4.884q2.549-2.489,5.287-4.773a99.137,99.137,0,0,1,12.135-8.654,108.7,108.7,0,0,1,14.439-7.287,115,115,0,0,1,16.319-5.384,128.1,128.1,0,0,1,18.4-3.174,139.85,139.85,0,0,1,20.083-.507,160.969,160.969,0,0,1,21.936,2.543,184.84,184.84,0,0,1,23.422,5.981q3.012.975,5.994,2.042a1.206,1.206,0,0,0,.839-2.259,198.74,198.74,0,0,0-24.333-7.013,166.532,166.532,0,0,0-22.525-3.377,148.067,148.067,0,0,0-20.962-.179,131.172,131.172,0,0,0-19.093,2.6,122.012,122.012,0,0,0-17.241,5.019,110.761,110.761,0,0,0-15.063,6.937,103.925,103.925,0,0,0-13.128,8.633,92.472,92.472,0,0,0-10.736,9.738,80.4,80.4,0,0,0-8.392,10.49,67.425,67.425,0,0,0-5.981,11.014q-.549,1.3-1.036,2.621A1.206,1.206,0,0,0,2432.654,12.38Z" transform="translate(-2426.391 134.269)" fill="#389a1b"/>
        <path id="Path_9621" data-name="Path 9621" d="M2641.687,478.194a63.841,63.841,0,0,1,.074-28.414,59.3,59.3,0,0,1,12.168-25.632,44.18,44.18,0,0,1,9.305-8.188c1.65-1.1,3.331-2.091,5.17-3.086,1.885-1.021,3.81-1.971,5.759-2.862a128.849,128.849,0,0,1,25.011-8.4,91.514,91.514,0,0,1,10.958-1.882q1.172-.12,2.35-.192l.554-.029c-.319.016.229-.008.317-.01.344-.011.689-.017,1.033-.017a20.307,20.307,0,0,1,3.5.252c.1.018.2.039.3.056.389.073-.2-.058.085.018.211.056.42.112.627.18,1.47.485,2.315-1.772.838-2.26a20.5,20.5,0,0,0-7.486-.575,74.1,74.1,0,0,0-10.522,1.447,133.181,133.181,0,0,0-25.612,7.919c-7.858,3.322-15.772,7.455-21.785,13.625-6.871,7.049-11.449,16.13-14.032,25.571a68.347,68.347,0,0,0-1.688,29.5q.3,1.706.7,3.389a1.233,1.233,0,0,0,1.4.979A1.215,1.215,0,0,0,2641.687,478.194Z" transform="translate(-2584.534 -203.422)" fill="#389a1b"/>
        <path id="Path_9622" data-name="Path 9622" d="M3032.274,530.667c3.435-7.654,4.513-16.261,4.36-24.587A96.189,96.189,0,0,0,3032.072,479a89.578,89.578,0,0,0-4.854-12.3,67.4,67.4,0,0,0-6.643-10.794,83.309,83.309,0,0,0-18.778-18.112,71.739,71.739,0,0,0-22.587-10.886c-1-.265-2.011-.5-3.024-.715a1.213,1.213,0,0,0-1.3,1.1,1.236,1.236,0,0,0,1.1,1.305c.118.024.236.049.352.075.013,0,.4.088.156.033.235.053.471.109.706.166q.71.172,1.415.362,1.426.386,2.834.845c1.917.625,3.8,1.347,5.655,2.15a71.573,71.573,0,0,1,10.86,5.876,81.392,81.392,0,0,1,18.933,16.993q1.982,2.443,3.752,5.049c1.143,1.686,2.083,3.214,3.084,5.044a79.051,79.051,0,0,1,5.094,11.648,95.431,95.431,0,0,1,5.307,26.184,73.605,73.605,0,0,1-.37,12.745q-.186,1.542-.45,3.074-.12.692-.257,1.379-.074.374-.153.745-.04.186-.08.37l-.012.053c-.019.082-.037.163-.057.245a47.146,47.146,0,0,1-1.669,5.6q-.487,1.317-1.062,2.6a1.205,1.205,0,1,0,2.26.838Z" transform="translate(-2841.624 -225.614)" fill="#389a1b"/>
        <path id="Path_9623" data-name="Path 9623" d="M3131.88,329.187a93.056,93.056,0,0,0,10.726-24.157,65.005,65.005,0,0,0,2.161-21.92,60.677,60.677,0,0,0-4.854-19.279,75.838,75.838,0,0,0-10.237-16.863,107.693,107.693,0,0,0-14.026-14.475,151.157,151.157,0,0,0-16.021-12.021c-5.422-3.56-11.036-6.818-16.766-9.852q-7.581-4.015-15.432-7.492-6.36-2.832-12.854-5.349c-2.845-1.105-5.709-2.161-8.577-3.206q-.629-.229-1.257-.461a1.206,1.206,0,0,0-.839,2.26c2.412.895,4.833,1.759,7.239,2.671q5.946,2.253,11.8,4.751,7.551,3.233,14.9,6.923,2.016,1.017,4.014,2.072l.432.229c.292.155-.233-.125.061.033l.26.139c.346.185.693.372,1.04.56q1.047.567,2.091,1.147,4.142,2.3,8.176,4.789a164.38,164.38,0,0,1,16.234,11.361q3.909,3.123,7.574,6.535c.023.021.28.262.082.076l.154.145.462.439q.459.439.916.886.908.888,1.8,1.8,1.715,1.757,3.344,3.592a88.489,88.489,0,0,1,6.086,7.654,68.029,68.029,0,0,1,4.985,8.11,65.026,65.026,0,0,1,3.861,8.88q.185.537.362,1.079.1.3.19.592c-.068-.216-.013-.041,0,0,.041.133.082.264.122.4q.36,1.193.668,2.4.608,2.36,1.014,4.766.412,2.442.615,4.913c.144,1.765.192,3.064.179,4.916a62.533,62.533,0,0,1-1.023,10.7q-.247,1.361-.549,2.711c.054-.24-.035.15-.038.159-.028.12-.055.238-.083.357q-.086.359-.174.716-.179.721-.373,1.441-.784,2.9-1.8,5.737a91,91,0,0,1-5.252,11.877c-1,1.9-2.175,3.946-3.338,5.851a1.238,1.238,0,0,0,.273,1.683A1.216,1.216,0,0,0,3131.88,329.187Z" transform="translate(-2893.68 -48.601)" fill="#389a1b"/>
        <path id="Path_9624" data-name="Path 9624" d="M3219.908,91.511a47.877,47.877,0,0,0-.048-16.56,53.413,53.413,0,0,0-5.4-15.369,74.446,74.446,0,0,0-9.706-13.978,110.556,110.556,0,0,0-13.024-12.577,157.05,157.05,0,0,0-15.256-11.079c-5.385-3.463-10.948-6.644-16.622-9.613q-8.217-4.3-16.738-7.989-7.893-3.433-15.991-6.372c-4.693-1.7-9.435-3.28-14.225-4.692-3.869-1.141-7.772-2.176-11.718-3.016q-1.126-.24-2.257-.451a1.214,1.214,0,0,0-1.3,1.1,1.232,1.232,0,0,0,1.1,1.305q1.151.215,2.3.459l.57.124.332.073c.115.026.375.085.1.023q.65.147,1.3.3c1.913.454,3.816.951,5.71,1.477,4.555,1.263,9.063,2.693,13.528,4.238q7.845,2.715,15.513,5.906,8.375,3.478,16.5,7.511c5.574,2.774,11.02,5.746,16.354,8.988a171.633,171.633,0,0,1,15.5,10.559,118.2,118.2,0,0,1,13.38,11.879,80.21,80.21,0,0,1,10.4,13.221,55.949,55.949,0,0,1,6.412,14.521,45.256,45.256,0,0,1,1.411,15.771c-.117,1.353-.3,2.7-.526,4.036C3217.243,92.83,3219.645,93.034,3219.908,91.511Z" transform="translate(-2935.213 107.125)" fill="#389a1b"/>
        <path id="Path_9625" data-name="Path 9625" d="M3270.447-136.76c-2.322-5.333-4.617-10.678-6.971-16a67.082,67.082,0,0,0-8.005-14.152,74.542,74.542,0,0,0-11.05-11.214,126.2,126.2,0,0,0-13.24-9.893,86.125,86.125,0,0,0-29.625-11.428,109.228,109.228,0,0,0-26.73-1.858,99.309,99.309,0,0,0-19.281,2.726q-.8.2-1.595.424a1.24,1.24,0,0,0-.979,1.4,1.214,1.214,0,0,0,1.4.979,92.609,92.609,0,0,1,17.682-2.946,108.559,108.559,0,0,1,25.48,1,95.19,95.19,0,0,1,14.13,3.362,79.814,79.814,0,0,1,14.536,6.157,104.22,104.22,0,0,1,13.638,9.448,87.316,87.316,0,0,1,11.39,10.5,55.5,55.5,0,0,1,8.543,13.169c2.4,5.058,4.535,10.246,6.769,15.378q.861,1.979,1.724,3.958A1.206,1.206,0,0,0,3270.447-136.76Z" transform="translate(-2977.408 252.952)" fill="#389a1b"/>
        <path id="Path_9626" data-name="Path 9626" d="M2461.772,180.638c2.042-5.589,6.75-9.683,11.138-13.465a139.973,139.973,0,0,1,11.823-9.127,152.257,152.257,0,0,1,26.3-14.475,175.84,175.84,0,0,1,28.715-9.47,201.89,201.89,0,0,1,30.014-4.776,221.107,221.107,0,0,1,30.5-.426q1.855.1,3.71.234a.3.3,0,0,0,.052-.6,224.121,224.121,0,0,0-30.633-.08,204.593,204.593,0,0,0-30.462,4.3,179.71,179.71,0,0,0-29.067,8.981,155.354,155.354,0,0,0-26.751,13.986,141.171,141.171,0,0,0-12.157,8.944c-2.033,1.671-4.026,3.4-5.95,5.191a35.543,35.543,0,0,0-5.915,6.777,19.724,19.724,0,0,0-1.883,3.8A.3.3,0,0,0,2461.772,180.638Z" transform="translate(-2449.932 1.771)" fill="#389a1b"/>
        <path id="Path_9627" data-name="Path 9627" d="M2958.932,65.413a123.685,123.685,0,0,1,21.644,2.736q2.962.616,5.9,1.352c.372.093.586-.471.21-.565a142.073,142.073,0,0,0-21.652-3.758c-2.011-.181-4.028-.308-6.047-.365C2958.6,64.8,2958.543,65.4,2958.932,65.413Z" transform="translate(-2829.264 49.927)" fill="#389a1b"/>
        <path id="Path_9628" data-name="Path 9628" d="M3226.75,27.9c-2.289-6.98-6.953-13.065-11.924-18.359a128.016,128.016,0,0,0-21.508-17.938A192.532,192.532,0,0,0,3166.227-23.7a173.219,173.219,0,0,0-28.907-10.6,97.39,97.39,0,0,0-26.646-3.668q-1.444.03-2.887.126c-.386.026-.281.619.1.594,8.766-.581,17.622.712,26.133,2.739a166.112,166.112,0,0,1,28.618,9.84A194.186,194.186,0,0,1,3190-9.881,137.531,137.531,0,0,1,3212.2,7.707c5.291,5.274,10.3,11.276,13.181,18.244q.45,1.087.816,2.2C3226.323,28.523,3226.87,28.269,3226.75,27.9Z" transform="translate(-2942.784 128.307)" fill="#389a1b"/>
        <path id="Path_9629" data-name="Path 9629" d="M3207.651,94.754a116.177,116.177,0,0,0-20.027-21.248A175.278,175.278,0,0,0,3163.5,56.741a262.583,262.583,0,0,0-25.227-12.871c-7.575-3.393-15.28-6.487-23.054-9.4-5.934-2.222-11.915-4.309-17.868-6.48q-.84-.306-1.68-.617a.3.3,0,0,0-.21.565c5.63,2.089,11.306,4.048,16.939,6.126,7.571,2.794,15.087,5.744,22.487,8.966A274.1,274.1,0,0,1,3159.953,55.4a184.691,184.691,0,0,1,24.429,16.24,121.086,121.086,0,0,1,20.667,20.626q1.093,1.416,2.133,2.872C3207.41,95.453,3207.874,95.069,3207.651,94.754Z" transform="translate(-2933.426 78.488)" fill="#389a1b"/>
        <path id="Path_9630" data-name="Path 9630" d="M3096.308,136.052a54.951,54.951,0,0,0-12.3-7.561,93.526,93.526,0,0,0-13.794-5.21,63.274,63.274,0,0,0-6.507-1.557c-.381-.068-.433.532-.053.6a74.072,74.072,0,0,1,12.325,3.48,82.784,82.784,0,0,1,13.586,6.277,44.965,44.965,0,0,1,6.389,4.459C3096.25,136.793,3096.6,136.3,3096.308,136.052Z" transform="translate(-2909.119 6.535)" fill="#389a1b"/>
        <path id="Path_9631" data-name="Path 9631" d="M3167.937,245.625q-.418-2.752-1.1-5.455a57.6,57.6,0,0,0-2.1-6.6,63.726,63.726,0,0,0-3.494-7.542,76.664,76.664,0,0,0-5.335-8.42,95.094,95.094,0,0,0-7.59-9.144,123.99,123.99,0,0,0-10.176-9.651,164.184,164.184,0,0,0-13.33-10.165c-5.446-3.752-11.085-7.222-16.845-10.472-6.708-3.786-13.582-7.278-20.559-10.54-8.233-3.85-16.611-7.381-25.082-10.67q-3.414-1.326-6.847-2.6a.3.3,0,0,0-.209.565c8.772,3.259,17.458,6.753,26,10.565,7.363,3.282,14.624,6.8,21.721,10.621,6.033,3.252,11.952,6.723,17.686,10.48,4.834,3.169,9.539,6.54,14.042,10.167a131.377,131.377,0,0,1,10.92,9.793,100.858,100.858,0,0,1,8.137,9.22,79.242,79.242,0,0,1,5.813,8.55,66.225,66.225,0,0,1,3.885,7.728,57.77,57.77,0,0,1,2.377,6.763,56.2,56.2,0,0,1,1.291,5.714q.1.6.194,1.2A.3.3,0,0,0,3167.937,245.625Z" transform="translate(-2902.782 -18.341)" fill="#389a1b"/>
        <path id="Path_9632" data-name="Path 9632" d="M3132.56,309.006a47.975,47.975,0,0,0-1.427-5.3c-.753-2.319-1.636-4.595-2.606-6.831-1.2-2.757-2.533-5.454-3.978-8.091-1.693-3.091-3.537-6.1-5.507-9.023-2.253-3.346-4.675-6.58-7.238-9.7q-4.317-5.248-9.143-10.048a149.565,149.565,0,0,0-11.165-10.055,161.878,161.878,0,0,0-13.4-9.8,180.067,180.067,0,0,0-15.8-9.247,202.025,202.025,0,0,0-18.482-8.448q-2.476-.989-4.975-1.916a.3.3,0,0,0-.21.565c6.452,2.4,12.8,5.087,18.981,8.106a184.306,184.306,0,0,1,16.522,9.121,166.393,166.393,0,0,1,13.9,9.647,151.205,151.205,0,0,1,11.74,10.06q5,4.76,9.527,9.99,4.034,4.676,7.616,9.716c2.11,2.979,4.09,6.049,5.913,9.211,1.552,2.692,2.992,5.449,4.294,8.27,1.073,2.324,2.053,4.693,2.905,7.107a53.977,53.977,0,0,1,1.683,5.646c.087.371.169.743.245,1.116A.3.3,0,0,0,3132.56,309.006Z" transform="translate(-2890.098 -68.812)" fill="#389a1b"/>
        <path id="Path_9633" data-name="Path 9633" d="M3038.525,319.6a35.385,35.385,0,0,0-10.344-9.451,72.84,72.84,0,0,0-12.808-6.338q-3.253-1.262-6.589-2.288c-.369-.114-.581.45-.21.565a92.258,92.258,0,0,1,12.081,4.634,54.542,54.542,0,0,1,12.163,7.564,29.492,29.492,0,0,1,5.241,5.695C3038.28,320.3,3038.744,319.912,3038.525,319.6Z" transform="translate(-2867.172 -130.552)" fill="#389a1b"/>
        <path id="Path_9634" data-name="Path 9634" d="M3062.7,439.581a141.4,141.4,0,0,0-3.983-17.631,114.084,114.084,0,0,0-5.487-14.776,97.132,97.132,0,0,0-6.665-12.262,86.827,86.827,0,0,0-7.5-10.021,83.337,83.337,0,0,0-15.995-14.216,88.25,88.25,0,0,0-7.828-4.754q-3.547-1.913-7.238-3.531c-2.068-.908-4.161-1.751-6.272-2.551-1.648-.625-3.306-1.219-4.955-1.84q-.481-.181-.962-.368a.3.3,0,0,0-.21.564c1.51.591,3.039,1.133,4.558,1.7,1.989.739,3.968,1.506,5.924,2.327,2.356.991,4.681,2.059,6.957,3.221q3.921,2,7.637,4.376a84.522,84.522,0,0,1,8.011,5.819,82.24,82.24,0,0,1,7.969,7.484,85.263,85.263,0,0,1,7.586,9.408,92.833,92.833,0,0,1,6.88,11.636,108.644,108.644,0,0,1,5.808,14.121,132.612,132.612,0,0,1,4.365,16.85q.436,2.268.805,4.549A.3.3,0,0,0,3062.7,439.581Z" transform="translate(-2857.285 -173.333)" fill="#389a1b"/>
        <path id="Path_9635" data-name="Path 9635" d="M3002.124,548.623a42.57,42.57,0,0,0-3.068-13.946,54.972,54.972,0,0,0-7.175-12.576,77.83,77.83,0,0,0-10.19-10.874,82.71,82.71,0,0,0-11.741-8.948A85.585,85.585,0,0,0,2956,495.4q-1-.392-2.01-.766a.3.3,0,0,0-.21.565,90.158,90.158,0,0,1,14.266,6.631,79,79,0,0,1,11.7,8.472,82.668,82.668,0,0,1,10.42,10.569,56.37,56.37,0,0,1,7.56,12.2,43.135,43.135,0,0,1,3.68,13.674q.083.91.124,1.824C3001.54,548.953,3002.141,549.01,3002.124,548.623Z" transform="translate(-2825.392 -277.799)" fill="#389a1b"/>
        <path id="Path_9636" data-name="Path 9636" d="M2962.8,570.751a47.67,47.67,0,0,0-7.68-9.714,40.38,40.38,0,0,0-9.633-6.742,52.538,52.538,0,0,0-6.636-2.766.3.3,0,0,0-.209.565,47.056,47.056,0,0,1,10.961,5.289,39.593,39.593,0,0,1,8.548,7.809,51.959,51.959,0,0,1,4.1,5.811C2962.457,571.329,2963.007,571.081,2962.8,570.751Z" transform="translate(-2813.852 -321.184)" fill="#389a1b"/>
        <path id="Path_9637" data-name="Path 9637" d="M2817.077,524.922a28.766,28.766,0,0,1,10.246-4.313,39.7,39.7,0,0,1,12.285-.69,43.024,43.024,0,0,1,7.241,1.323c.371.1.585-.463.209-.565a43.22,43.22,0,0,0-13-1.52,36.219,36.219,0,0,0-11.809,2.356,26.94,26.94,0,0,0-5.558,2.943C2816.376,524.678,2816.761,525.142,2817.077,524.922Z" transform="translate(-2720.919 -296.492)" fill="#389a1b"/>
        <path id="Path_9638" data-name="Path 9638" d="M2946.928,595.139a16.451,16.451,0,0,0-4.271-5.138,34.008,34.008,0,0,0-6.845-4.348,50.3,50.3,0,0,0-4.744-2.036.3.3,0,0,0-.209.565,45.312,45.312,0,0,1,7.78,3.7,25,25,0,0,1,5.742,4.607,13.314,13.314,0,0,1,2,2.9C2946.553,595.738,2947.1,595.487,2946.928,595.139Z" transform="translate(-2807.917 -345.65)" fill="#389a1b"/>
        <path id="Path_9639" data-name="Path 9639" d="M2825.6,652.644a27.214,27.214,0,0,1,14.479-1.809,24.61,24.61,0,0,1,4.855,1.247.3.3,0,0,0,.21-.565,27.216,27.216,0,0,0-16.277-.617,26.237,26.237,0,0,0-3.519,1.2C2825,652.248,2825.248,652.8,2825.6,652.644Z" transform="translate(-2727.479 -396.243)" fill="#389a1b"/>
        <path id="Path_9640" data-name="Path 9640" d="M2937.81,677.617a78.6,78.6,0,0,0-.879-12.062,63.606,63.606,0,0,0-2.87-11.506,48.735,48.735,0,0,0-5.054-10.313,38.985,38.985,0,0,0-7.432-8.48,36.511,36.511,0,0,0-10.059-6.029q-.69-.276-1.392-.525a1.205,1.205,0,1,0-.838,2.26q1.389.5,2.74,1.1.658.3,1.307.616.309.154.615.313l.14.074c.168.087-.172-.094-.006,0,.108.059.217.117.323.176a35.056,35.056,0,0,1,4.654,3.077q1.081.844,2.092,1.771l.259.241c.1.094-.033-.03-.043-.041l.11.1q.256.243.507.493.482.479.947.978a38.519,38.519,0,0,1,3.419,4.231q.406.58.792,1.175c.111.17.219.34.327.513.122.192.022.035,0,0l.08.13.185.3q.724,1.2,1.37,2.447a49.157,49.157,0,0,1,2.279,5.079q.505,1.318.941,2.659c.033.1.065.2.1.3.022.065.118.373.051.156.073.235.143.469.214.706q.2.683.389,1.371c.5,1.851.913,3.728,1.246,5.617q.5,2.865.77,5.766.135,1.456.215,2.916.019.352.035.7c-.009-.2,0,.05,0,.121.006.144.012.289.017.433.017.488.029.975.037,1.464s.012.975.011,1.463a1.205,1.205,0,0,0,2.4.209Z" transform="translate(-2791.021 -379.991)" fill="#389a1b"/>
        <path id="Path_9641" data-name="Path 9641" d="M2728.164,701.609q.766-1.048,1.6-2.044.358-.426.73-.842c.148-.165.3-.328.448-.492l.013-.014c.1-.107.2-.214.305-.32a37.733,37.733,0,0,1,3.531-3.216q.936-.75,1.915-1.44.452-.319.915-.625c.16-.106.322-.212.484-.316.073-.047.147-.094.221-.14q.175-.111,0,0l.178-.11a40.245,40.245,0,0,1,8.173-3.827q.233-.079.467-.154l.28-.089c-.041.013-.229.07-.014,0,.371-.113.744-.223,1.118-.326q1.017-.281,2.044-.5a36.836,36.836,0,0,1,4.063-.655c.312-.032.624-.06.938-.084l.486-.034.221-.013c.064,0,.464-.02.126-.007.632-.025,1.265-.035,1.9-.023a26.951,26.951,0,0,1,4.059.372c.3.052.61.111.911.175.078.017.336.092-.017-.006.072.021.147.035.221.051.171.041.341.084.51.129q.878.234,1.734.549a1.206,1.206,0,0,0,.839-2.26c-4.867-1.8-10.353-1.734-15.391-.777a41.148,41.148,0,0,0-16.984,7.528,38.876,38.876,0,0,0-7.986,8.1,1.205,1.205,0,1,0,1.956,1.409Z" transform="translate(-2651.845 -422.137)" fill="#389a1b"/>
        <path id="Path_9642" data-name="Path 9642" d="M2821.747,604.394a24.286,24.286,0,0,1,8.345-3.829,29.088,29.088,0,0,1,9.5-.571,44.694,44.694,0,0,1,6.023,1.006c.372.087.587-.477.209-.565-6.548-1.532-13.525-1.857-19.818.86a25.648,25.648,0,0,0-4.642,2.632C2821.049,604.153,2821.433,604.617,2821.747,604.394Z" transform="translate(-2724.481 -357.599)" fill="#389a1b"/>
        <path id="Path_9643" data-name="Path 9643" d="M2705.376,514.071a34.972,34.972,0,0,1,4.7-7.375,65.665,65.665,0,0,1,8.694-9.076,59.906,59.906,0,0,1,11.94-8.12,45.008,45.008,0,0,1,14.645-4.651,39.013,39.013,0,0,1,16.54,1.469c.73.227,1.452.475,2.168.74a.3.3,0,0,0,.209-.565,40.191,40.191,0,0,0-16.964-2.447,43.98,43.98,0,0,0-15.086,4.049,58.627,58.627,0,0,0-12.508,7.942,67.331,67.331,0,0,0-9.249,9.216,41.427,41.427,0,0,0-5.308,7.869q-.181.365-.345.74C2704.656,514.216,2705.221,514.425,2705.376,514.071Z" transform="translate(-2635.678 -269.658)" fill="#389a1b"/>
        <path id="Path_9644" data-name="Path 9644" d="M2615.779,412.884a63.848,63.848,0,0,1,10.579-19.919,82.469,82.469,0,0,1,16.436-15.827,97.067,97.067,0,0,1,19.822-11.2,89.306,89.306,0,0,1,20.778-6,60.35,60.35,0,0,1,19.089-.189q1.065.175,2.118.4c.378.081.428-.52.052-.6a57.122,57.122,0,0,0-18.986-.54,87.367,87.367,0,0,0-20.762,5.353,98.3,98.3,0,0,0-20.247,10.712,85.5,85.5,0,0,0-17.041,15.372,66.078,66.078,0,0,0-11.51,19.6q-.478,1.306-.893,2.634C2615.1,413.042,2615.663,413.255,2615.779,412.884Z" transform="translate(-2567.367 -173.989)" fill="#389a1b"/>
        <path id="Path_9645" data-name="Path 9645" d="M2893.582,320.865a59.357,59.357,0,0,1,27.35-2.417c.383.056.435-.544.051-.6a59.886,59.886,0,0,0-27.652,2.471C2892.963,320.441,2893.217,320.987,2893.582,320.865Z" transform="translate(-2779.308 -142.539)" fill="#389a1b"/>
        <path id="Path_9646" data-name="Path 9646" d="M2756.091,236.6q6.088-2.394,12.375-4.234t12.717-3.107q6.395-1.263,12.882-1.958,6.5-.7,13.052-.811t13.088.364q.8.058,1.6.126a.3.3,0,0,0,.052-.6q-6.557-.551-13.146-.508-6.554.043-13.089.668-6.551.628-13.028,1.837t-12.812,2.99q-6.279,1.766-12.385,4.084-.781.3-1.556.6C2755.478,236.2,2755.73,236.744,2756.091,236.6Z" transform="translate(-2674.473 -72.881)" fill="#389a1b"/>
        <path id="Path_9647" data-name="Path 9647" d="M2770.26,8.849q7.426-.993,14.923-1.292,7.458-.294,14.921.1t14.849,1.468q7.412,1.079,14.706,2.837,7.254,1.754,14.324,4.176.872.3,1.738.607a.3.3,0,0,0,.21-.565q-7.1-2.522-14.408-4.373-7.24-1.832-14.63-3-7.44-1.171-14.967-1.652-7.481-.478-14.987-.263-7.464.214-14.888,1.114c-.632.077-1.262.158-1.894.242C2769.773,8.306,2769.876,8.9,2770.26,8.849Z" transform="translate(-2685.34 94.138)" fill="#389a1b"/>
        <path id="Path_9648" data-name="Path 9648" d="M3120.87,105.2a36.952,36.952,0,0,0-7.668-6.732,91.29,91.29,0,0,0-10.425-6.141c-3.63-1.859-7.347-3.549-11.122-5.092-3.19-1.3-6.423-2.514-9.709-3.554a31.958,31.958,0,0,0-6.243-1.553c-.139-.014-.278-.025-.417-.029-.386-.012-.442.589-.053.6a11.5,11.5,0,0,1,2.169.336c1.148.258,2.282.581,3.408.921,3.145.955,6.238,2.085,9.292,3.3q5.58,2.221,10.973,4.883a98.294,98.294,0,0,1,10.533,5.975,41.749,41.749,0,0,1,8.077,6.629q.369.41.718.837A.3.3,0,0,0,3120.87,105.2Z" transform="translate(-2917.944 36.745)" fill="#389a1b"/>
        <path id="Path_9649" data-name="Path 9649" d="M3095.226,291.406a65.506,65.506,0,0,0-7.63-8.742,107.42,107.42,0,0,0-10.386-8.842,150.886,150.886,0,0,0-12.846-8.643c-4.839-2.922-9.82-5.607-14.9-8.081q-8.186-3.985-16.7-7.241-1.07-.41-2.144-.808a.3.3,0,0,0-.21.565q8.529,3.169,16.771,7.053,7.756,3.666,15.168,8.006c4.472,2.633,8.833,5.462,13.021,8.529a112,112,0,0,1,10.706,8.828,69.741,69.741,0,0,1,7.917,8.705q.392.521.771,1.051C3094.987,292.1,3095.452,291.719,3095.226,291.406Z" transform="translate(-2883.822 -90.54)" fill="#389a1b"/>
        <path id="Path_9650" data-name="Path 9650" d="M3021.06,410.969a37.312,37.312,0,0,0-6.032-6.223,70.554,70.554,0,0,0-7.774-5.618,95.989,95.989,0,0,0-15.628-8.027,31.922,31.922,0,0,0-5.945-1.906c-.381-.07-.431.53-.052.6a28.716,28.716,0,0,1,5.029,1.572c2.457.946,4.861,2.032,7.222,3.2a85.875,85.875,0,0,1,15.884,9.916,38.342,38.342,0,0,1,6.83,6.867C3020.825,411.662,3021.291,411.278,3021.06,410.969Z" transform="translate(-2849.626 -197.413)" fill="#389a1b"/>
        <path id="Path_9651" data-name="Path 9651" d="M3004.456,490.682a47.778,47.778,0,0,0-11.946-13.789,71.165,71.165,0,0,0-16.673-9.915,76.99,76.99,0,0,0-10.287-3.582c-.372-.1-.584.463-.21.564a76.391,76.391,0,0,1,17.759,7.286A61.159,61.159,0,0,1,2997.97,482.8a42.39,42.39,0,0,1,5.938,8.131C3004.1,491.271,3004.645,491.022,3004.456,490.682Z" transform="translate(-2834.203 -253.986)" fill="#389a1b"/>
        <path id="Path_9652" data-name="Path 9652" d="M2983.359,557.2a68.847,68.847,0,0,0-12.552-15.8,70.266,70.266,0,0,0-16.6-11.573,67.55,67.55,0,0,0-10.572-4.217c-.369-.113-.582.451-.209.565a68.122,68.122,0,0,1,18.071,8.586,69.557,69.557,0,0,1,14.861,13.41,67.211,67.211,0,0,1,6.456,9.279C2983,557.781,2983.553,557.533,2983.359,557.2Z" transform="translate(-2817.493 -301.421)" fill="#389a1b"/>
        <path id="Path_9653" data-name="Path 9653" d="M2923.687,697.791c-.146-.787-.1-1.628-.179-2.423a30.022,30.022,0,0,0-.851-4.845,28.728,28.728,0,0,0-2.49-6.337,29.511,29.511,0,0,0-5.072-6.805,36.3,36.3,0,0,0-8.548-6.283q-.669-.359-1.348-.7c-.347-.173-.554.393-.21.565a37.072,37.072,0,0,1,8.973,6.147,29.268,29.268,0,0,1,5.293,6.669,28.1,28.1,0,0,1,2.661,6.307,29.657,29.657,0,0,1,.955,4.962c.1.9.084,1.818.2,2.713.006.043.01.088.018.131A.3.3,0,0,0,2923.687,697.791Z" transform="translate(-2788.2 -411.814)" fill="#389a1b"/>
        <path id="Path_9654" data-name="Path 9654" d="M2818.589,561.267a38.4,38.4,0,0,1,21.563-3.993,25.534,25.534,0,0,1,5.747,1.355.3.3,0,0,0,.21-.565,29.291,29.291,0,0,0-10.814-1.619,40.333,40.333,0,0,0-11.233,1.893,35.018,35.018,0,0,0-5.725,2.381C2818,560.9,2818.246,561.448,2818.589,561.267Z" transform="translate(-2722.138 -324.938)" fill="#389a1b"/>
        <path id="Path_9655" data-name="Path 9655" d="M2865.1,439.588a40.3,40.3,0,0,0-13.681-.833,62.885,62.885,0,0,0-13.612,2.646,32.736,32.736,0,0,0-5.687,2.3c-.34.183-.091.732.25.547a41.741,41.741,0,0,1,11.1-3.708,59.245,59.245,0,0,1,14.118-1.367,32.465,32.465,0,0,1,7.3.979C2865.26,440.251,2865.473,439.688,2865.1,439.588Z" transform="translate(-2732.647 -235.042)" fill="#389a1b"/>
        <path id="Path_9656" data-name="Path 9656" d="M2920.524,262.707a47.081,47.081,0,0,0-11.736-1.448,61.538,61.538,0,0,0-13.463,1.074,27.184,27.184,0,0,0-6.149,1.918.3.3,0,0,0,.251.547,35.024,35.024,0,0,1,11.73-2.686,67.618,67.618,0,0,1,13.168.09,36.508,36.508,0,0,1,5.99,1.07C2920.685,263.376,2920.9,262.812,2920.524,262.707Z" transform="translate(-2776.148 -99.853)" fill="#389a1b"/>
        <path id="Path_9657" data-name="Path 9657" d="M2807.592,723.006a.3.3,0,0,1-.176.575c-14.5-3.5-22.879,4.7-22.96,4.782a.3.3,0,0,1-.427,0,.3.3,0,0,1,0-.425c.085-.085,8.69-8.523,23.529-4.942Z" transform="translate(-2696.034 -451.269)" fill="#389a1b"/>
        <path id="Path_9658" data-name="Path 9658" d="M2873.943,763.693c8.709,3.233,15.39,10.72,15.538,17.414a.3.3,0,0,1-.6.014c-.141-6.356-6.793-13.763-15.145-16.863a.3.3,0,1,1,.21-.565Z" transform="translate(-2764.351 -482.961)" fill="#389a1b"/>
        <path id="Path_9659" data-name="Path 9659" d="M2890.326,713.523c5.516,2.048,12.379,5.883,13.752,12.525a.3.3,0,0,1-.234.356.3.3,0,0,1-.356-.234c-1.316-6.373-8-10.087-13.371-12.083a.3.3,0,1,1,.21-.565Z" transform="translate(-2776.844 -444.705)" fill="#389a1b"/>
        <path id="Path_9660" data-name="Path 9660" d="M2825.026,800.129c.1.035.153.059.174.067a.3.3,0,0,1,.162.394.286.286,0,0,1-.393.163,14.616,14.616,0,0,0-11.155.542.3.3,0,1,1-.272-.537A14.942,14.942,0,0,1,2825.026,800.129Z" transform="translate(-2718.48 -510.1)" fill="#389a1b"/>
        <path id="Path_9661" data-name="Path 9661" d="M2797.333,764.308a.3.3,0,0,1-.034.575c-.075.019-.11.011-.306-.031-2.841-.6-12.927-1.968-23.416,5.793a.3.3,0,0,1-.359-.484c10.692-7.912,21-6.514,23.9-5.9.06.013.1.022.127.026A.32.32,0,0,1,2797.333,764.308Z" transform="translate(-2687.766 -483.026)" fill="#389a1b"/>
        <path id="Path_9662" data-name="Path 9662" d="M2811.261,875.356c.251.094.4.16.428.175a.3.3,0,0,1,.145.4.314.314,0,0,1-.4.146,13.812,13.812,0,0,0-8.937-.322.3.3,0,0,1-.168-.579A14.523,14.523,0,0,1,2811.261,875.356Z" transform="translate(-2709.89 -567.517)" fill="#389a1b"/>
        <path id="Path_9663" data-name="Path 9663" d="M2780.679,837.194a23.753,23.753,0,0,1,14.677,16.555.3.3,0,1,1-.593.111,23.135,23.135,0,0,0-14.294-16.1c-13.333-4.949-21.095,4.045-21.173,4.137a.3.3,0,0,1-.462-.388C2758.914,841.413,2766.935,832.092,2780.679,837.194Z" transform="translate(-2676.837 -537.857)" fill="#389a1b"/>
        <path id="Path_9664" data-name="Path 9664" d="M2871.178,811.981a10.923,10.923,0,0,0-3.418-4.4,23.019,23.019,0,0,0-4.894-3.06,18.49,18.49,0,0,0-2.387-.951c-.369-.115-.581.449-.21.565a20.826,20.826,0,0,1,4.323,1.975,17.762,17.762,0,0,1,4.452,3.546,8.435,8.435,0,0,1,1.585,2.574C2870.766,812.6,2871.313,812.343,2871.178,811.981Z" transform="translate(-2754.089 -513.372)" fill="#389a1b"/>
        <path id="Path_9665" data-name="Path 9665" d="M2845.685,884.254a11.876,11.876,0,0,0-4.052-3.487,18.055,18.055,0,0,0-2.206-1.062c-.472-.189-1.575-.789-1.853-.061a.3.3,0,0,0,.565.21s1.56.615,1.706.681a16.959,16.959,0,0,1,1.959,1.029,11.012,11.012,0,0,1,3.414,3.072C2845.438,884.956,2845.9,884.572,2845.685,884.254Z" transform="translate(-2736.915 -571.12)" fill="#389a1b"/>
      </g>
    </g>
  </g>
</svg>
