<svg xmlns="http://www.w3.org/2000/svg" width="16.494" height="16.494" viewBox="0 0 16.494 16.494">
  <path id="phone-solid_3_" data-name="phone-solid (3)" d="M15.885.782,12.534.009a.778.778,0,0,0-.886.448L10.1,4.065a.771.771,0,0,0,.222.9l1.952,1.6a11.939,11.939,0,0,1-5.708,5.708l-1.6-1.952a.772.772,0,0,0-.9-.222L.46,11.645a.782.782,0,0,0-.451.889l.773,3.35a.773.773,0,0,0,.754.6A14.946,14.946,0,0,0,16.484,1.536.772.772,0,0,0,15.885.782Z" transform="translate(0.01 0.011)" fill="#389a1b"/>
</svg>
